<?xml version="1.0" standalone="no"?>
<!DOCTYPE svg PUBLIC "-//W3C//DTD SVG 20010904//EN"
 "http://www.w3.org/TR/2001/REC-SVG-20010904/DTD/svg10.dtd">
<svg version="1.0" xmlns="http://www.w3.org/2000/svg"
 width="1995.000000pt" height="2017.000000pt" viewBox="0 0 1995.000000 2017.000000"
 preserveAspectRatio="xMidYMid meet">

<g transform="translate(0.000000,2017.000000) scale(0.100000,-0.100000)"
fill="#000000" stroke="none">
<path d="M13280 19888 c-239 -8 -308 -13 -321 -24 -11 -10 -41 -14 -101 -14
-64 0 -89 -4 -98 -15 -9 -11 -33 -15 -85 -15 -52 0 -76 -4 -85 -15 -8 -10 -31
-15 -70 -15 -39 0 -62 -5 -70 -15 -8 -10 -31 -15 -70 -15 -39 0 -62 -5 -70
-15 -7 -9 -29 -15 -55 -15 -26 0 -48 -6 -55 -15 -8 -9 -30 -15 -60 -15 -30 0
-52 -6 -60 -15 -7 -8 -25 -15 -40 -15 -15 0 -33 -7 -40 -15 -8 -9 -30 -15 -60
-15 -30 0 -52 -6 -60 -15 -7 -8 -24 -15 -39 -15 -15 0 -31 -4 -37 -10 -5 -5
-25 -12 -43 -14 -18 -2 -38 -9 -44 -15 -6 -6 -23 -11 -38 -11 -15 0 -32 -7
-39 -15 -7 -8 -20 -15 -30 -15 -10 0 -23 -7 -30 -15 -7 -8 -25 -15 -41 -15
-15 0 -34 -7 -43 -15 -8 -8 -28 -15 -44 -15 -16 0 -35 -7 -42 -15 -7 -8 -20
-15 -30 -15 -10 0 -23 -7 -30 -15 -7 -8 -21 -15 -30 -15 -10 0 -20 -5 -22 -12
-3 -7 -16 -13 -30 -13 -28 -2 -168 -66 -168 -77 0 -5 -8 -8 -19 -8 -10 0 -24
-7 -31 -15 -7 -8 -20 -15 -30 -15 -10 0 -23 -7 -30 -15 -7 -8 -21 -15 -31 -15
-10 0 -21 -4 -24 -10 -3 -5 -23 -17 -43 -26 -20 -8 -44 -20 -52 -25 -8 -5 -22
-12 -30 -15 -8 -3 -22 -9 -30 -14 -8 -5 -40 -21 -70 -36 -30 -15 -64 -37 -75
-50 -11 -13 -27 -24 -36 -24 -20 0 -39 -20 -39 -41 0 -9 -6 -22 -13 -28 -9 -7
-13 -28 -11 -57 2 -39 9 -53 40 -85 36 -37 41 -39 99 -39 52 0 65 4 84 24 13
14 85 55 160 92 75 37 138 71 139 76 2 4 12 8 22 8 9 0 23 7 30 15 7 8 20 15
30 15 10 0 23 7 30 15 7 8 21 15 31 15 10 0 20 4 24 9 7 12 133 74 154 75 23
2 101 38 101 48 0 4 8 8 19 8 10 0 24 7 31 15 7 8 27 15 45 15 18 0 38 7 45
15 7 8 25 15 40 15 15 0 33 7 40 15 7 8 20 15 30 15 10 0 23 7 30 15 7 8 27
15 45 15 18 0 38 7 45 15 7 8 24 15 39 15 15 0 32 5 37 10 6 6 33 12 59 14 27
1 51 8 53 14 2 7 18 12 37 12 18 0 38 7 45 15 7 9 29 15 55 15 26 0 48 6 55
15 7 9 29 15 54 15 23 0 51 7 62 15 10 8 38 15 60 15 24 0 47 6 54 15 8 10 31
15 70 15 39 0 62 5 70 15 8 10 31 15 70 15 39 0 62 5 70 15 9 11 33 15 85 15
52 0 76 4 85 15 10 12 37 15 123 15 81 0 115 4 126 14 13 12 107 15 559 17
409 2 545 0 554 -9 8 -8 48 -12 114 -12 78 0 104 -3 114 -15 9 -11 35 -15 99
-15 56 -1 92 -5 104 -14 11 -9 33 -12 62 -8 31 3 52 0 69 -12 16 -10 46 -16
79 -16 36 0 59 -5 67 -15 8 -9 30 -15 57 -15 26 0 51 -6 59 -15 9 -9 34 -15
59 -15 24 0 47 -4 50 -10 3 -5 21 -10 39 -10 19 0 39 -7 46 -15 7 -9 29 -15
55 -15 26 0 48 -6 55 -15 7 -8 27 -15 45 -15 18 0 38 -7 45 -15 7 -8 27 -15
46 -15 18 0 36 -4 39 -10 3 -5 19 -10 34 -10 16 0 34 -7 41 -15 7 -8 27 -15
45 -15 18 0 38 -7 45 -15 7 -8 20 -15 30 -15 10 0 23 -7 30 -15 7 -8 25 -15
41 -15 15 0 49 -11 75 -25 26 -14 54 -25 63 -25 13 0 158 -66 201 -91 8 -5 22
-12 30 -15 8 -3 22 -10 30 -15 8 -5 22 -12 30 -15 8 -3 22 -10 30 -15 8 -5 22
-12 30 -15 8 -3 22 -10 30 -15 8 -5 22 -12 30 -15 66 -27 263 -130 276 -145 9
-11 25 -19 34 -19 10 0 23 -7 30 -15 7 -8 20 -15 29 -15 10 0 28 -11 41 -25
13 -14 31 -25 40 -25 9 0 29 -13 45 -30 16 -16 36 -30 45 -30 9 0 29 -13 43
-30 15 -16 34 -30 43 -30 8 0 26 -11 40 -25 14 -14 33 -25 42 -25 9 0 23 -9
30 -21 7 -11 26 -26 41 -32 16 -7 54 -36 85 -65 32 -28 62 -52 69 -52 7 0 32
-18 55 -40 24 -22 49 -40 55 -40 7 0 52 -38 100 -85 48 -47 94 -85 102 -85 19
0 465 -439 465 -458 0 -9 38 -53 85 -99 47 -46 85 -89 85 -96 0 -7 27 -39 60
-72 33 -33 60 -66 60 -75 0 -9 18 -34 40 -55 22 -21 40 -45 40 -52 0 -7 14
-25 30 -40 17 -14 30 -34 30 -43 0 -9 20 -36 45 -60 24 -24 43 -46 41 -48 -8
-7 43 -97 63 -112 12 -8 21 -22 21 -30 0 -9 14 -29 30 -45 17 -16 30 -36 30
-46 0 -9 7 -22 15 -29 8 -7 15 -20 15 -30 0 -9 10 -25 21 -36 12 -10 25 -28
30 -39 5 -11 13 -28 19 -37 5 -10 15 -26 20 -35 6 -10 13 -25 16 -33 3 -8 9
-22 14 -30 5 -8 39 -76 76 -150 37 -74 71 -136 76 -138 4 -2 8 -18 8 -37 0
-18 7 -38 15 -45 8 -7 15 -21 15 -31 0 -10 4 -20 9 -23 14 -9 51 -90 51 -113
0 -11 7 -26 15 -33 8 -7 15 -25 15 -40 0 -28 24 -85 41 -95 5 -4 9 -19 9 -34
0 -15 7 -36 15 -47 8 -10 15 -31 15 -46 0 -15 7 -33 15 -42 9 -8 15 -33 15
-59 0 -27 6 -49 15 -57 8 -7 15 -25 15 -40 0 -15 7 -33 15 -40 9 -8 15 -30 15
-60 0 -30 6 -52 15 -60 9 -7 15 -29 15 -55 0 -26 6 -48 15 -55 9 -7 15 -29 15
-55 0 -26 6 -48 15 -55 11 -9 15 -33 15 -85 0 -52 4 -76 15 -85 11 -9 15 -33
15 -85 0 -52 4 -76 15 -85 11 -10 15 -36 15 -112 0 -75 4 -103 15 -114 12 -13
15 -52 15 -223 0 -173 3 -211 15 -221 11 -10 15 -35 15 -110 0 -75 -4 -100
-15 -110 -12 -10 -15 -48 -15 -224 0 -144 -4 -216 -11 -223 -7 -7 -11 -48 -10
-111 2 -78 -1 -101 -14 -112 -11 -9 -15 -32 -15 -84 -1 -46 -6 -78 -15 -90 -8
-11 -15 -38 -15 -61 0 -23 -5 -46 -12 -53 -6 -6 -11 -35 -9 -65 1 -38 -3 -57
-14 -67 -8 -7 -15 -27 -15 -45 0 -18 -7 -38 -15 -45 -9 -8 -15 -30 -15 -57 0
-26 -6 -51 -15 -59 -8 -9 -15 -28 -15 -44 0 -16 -5 -32 -10 -35 -5 -3 -10 -21
-10 -39 0 -19 -7 -39 -15 -46 -8 -7 -15 -27 -15 -45 0 -18 -7 -38 -15 -45 -8
-7 -15 -22 -15 -35 0 -12 -11 -43 -25 -69 -14 -26 -25 -60 -25 -75 0 -16 -7
-34 -15 -41 -8 -7 -15 -20 -15 -30 0 -10 -7 -23 -15 -30 -8 -7 -15 -28 -15
-46 0 -19 -4 -34 -8 -34 -8 0 -46 -76 -47 -92 0 -4 -6 -13 -12 -20 -7 -6 -13
-20 -13 -29 0 -9 -7 -22 -15 -29 -8 -7 -15 -20 -15 -30 0 -10 -7 -23 -15 -30
-8 -7 -15 -27 -15 -44 0 -22 -8 -40 -25 -56 -14 -13 -25 -31 -25 -41 0 -9 -7
-22 -15 -29 -8 -7 -15 -21 -15 -30 0 -10 -4 -20 -8 -22 -11 -4 -72 -127 -72
-143 0 -7 -7 -18 -15 -25 -8 -7 -15 -20 -15 -30 0 -10 -7 -23 -15 -30 -8 -7
-15 -20 -15 -29 0 -10 -11 -28 -25 -41 -14 -13 -25 -31 -25 -41 0 -9 -7 -22
-15 -29 -8 -7 -15 -20 -15 -29 0 -10 -13 -30 -30 -46 -16 -16 -30 -36 -30 -46
0 -9 -7 -22 -15 -29 -8 -7 -15 -18 -15 -24 0 -6 -11 -24 -25 -40 -14 -16 -25
-33 -25 -39 0 -5 -13 -25 -30 -44 -16 -18 -30 -40 -30 -47 0 -7 -11 -23 -25
-36 -14 -13 -25 -30 -25 -38 0 -8 -13 -30 -30 -49 -16 -18 -30 -40 -30 -47 0
-7 -11 -23 -25 -36 -14 -13 -25 -30 -25 -38 0 -8 -20 -37 -45 -63 -25 -26 -45
-54 -45 -62 0 -7 -11 -24 -25 -37 -14 -13 -25 -30 -25 -38 0 -8 -20 -37 -45
-63 -25 -26 -45 -54 -45 -62 0 -7 -18 -31 -40 -52 -22 -21 -40 -46 -40 -55 0
-9 -25 -40 -55 -70 -30 -30 -55 -61 -55 -70 0 -9 -18 -34 -40 -55 -22 -21 -40
-46 -40 -55 0 -8 -32 -47 -70 -85 -38 -38 -70 -76 -70 -85 0 -9 -31 -47 -70
-85 -38 -38 -70 -76 -70 -84 0 -8 -45 -61 -100 -116 -55 -56 -100 -108 -100
-116 0 -8 -45 -59 -101 -114 -56 -55 -106 -112 -113 -127 -6 -14 -108 -126
-226 -248 -118 -121 -219 -231 -225 -244 -5 -13 -178 -194 -382 -402 l-373
-379 0 -58 c0 -64 12 -80 85 -117 47 -24 88 -26 105 -5 7 8 20 15 30 15 21 0
450 436 450 458 0 8 117 133 259 276 346 348 391 395 391 412 0 7 61 75 135
151 74 76 135 145 135 153 0 9 45 60 100 115 55 55 100 107 100 115 0 9 32 47
70 85 39 38 70 76 70 84 0 8 32 47 70 87 39 39 70 78 70 85 0 6 25 38 55 70
30 32 55 64 55 71 0 8 25 38 55 68 30 30 55 61 55 70 0 9 18 34 40 55 22 21
40 46 40 53 0 8 20 37 45 63 25 26 45 54 45 62 0 7 18 31 40 52 22 21 40 45
40 53 0 8 14 30 30 49 17 18 30 40 30 47 0 7 11 23 25 36 14 13 25 31 25 40 0
9 14 29 30 45 17 16 30 36 30 45 0 9 11 27 25 40 14 13 25 31 25 40 0 9 14 29
30 45 17 16 30 35 30 42 0 8 11 25 25 39 14 14 25 30 25 37 0 7 11 24 24 38
13 14 36 51 50 81 14 30 35 63 46 73 11 10 20 26 20 35 0 10 7 23 15 30 8 7
15 20 15 30 0 9 9 25 21 36 22 19 59 89 59 110 0 6 7 17 15 24 8 7 15 20 15
30 0 10 7 23 15 30 8 7 15 20 15 30 0 10 7 23 15 30 8 7 15 21 15 31 0 11 5
19 10 19 6 0 10 6 10 13 0 6 25 61 55 121 30 59 55 114 55 121 0 7 7 18 15 25
8 7 15 20 15 30 0 10 7 23 15 30 8 7 15 20 15 30 0 10 7 23 15 30 8 7 15 21
15 31 0 11 5 19 10 19 6 0 10 15 10 34 0 18 7 39 15 46 8 7 15 20 15 30 0 10
7 23 15 30 8 7 15 27 15 45 0 18 7 38 15 45 8 7 15 21 15 31 0 10 5 21 10 24
5 3 10 19 10 34 0 16 7 34 15 41 8 7 15 27 15 45 0 18 7 38 15 45 8 7 15 27
15 45 0 18 7 38 15 45 8 7 15 28 15 46 0 19 5 34 10 34 6 0 10 22 10 49 0 31
5 53 15 61 8 7 15 27 15 45 0 18 7 38 15 45 9 7 15 30 15 54 0 22 7 49 14 59
9 11 12 33 8 62 -3 31 0 52 12 69 10 16 16 46 16 79 0 36 5 59 15 67 11 9 15
33 15 84 1 48 6 78 16 91 12 16 14 39 8 121 -4 65 -3 108 4 121 8 14 8 181 0
569 -13 671 -13 691 -29 710 -7 9 -13 50 -15 101 -1 47 -7 90 -13 96 -6 6 -11
34 -11 62 0 30 -6 59 -15 71 -8 11 -14 42 -15 75 0 38 -5 61 -15 69 -10 8 -15
31 -15 70 0 39 -5 62 -15 70 -8 7 -15 27 -15 45 0 18 -7 38 -15 45 -9 7 -15
29 -15 55 0 26 -6 48 -15 55 -9 7 -15 29 -15 55 0 26 -6 48 -15 55 -8 7 -15
27 -15 45 0 18 -7 38 -15 45 -8 7 -15 24 -15 39 0 14 -7 35 -15 45 -8 11 -15
30 -15 42 0 13 -11 44 -25 70 -14 26 -25 57 -25 69 0 13 -7 28 -15 35 -8 7
-15 27 -15 45 0 18 -7 38 -15 45 -8 7 -15 18 -15 25 0 7 -7 18 -15 25 -8 7
-15 20 -15 30 0 10 -7 23 -15 30 -8 7 -15 27 -15 46 0 18 -4 36 -10 39 -5 3
-17 23 -26 43 -8 20 -20 44 -25 52 -5 8 -12 22 -15 30 -3 8 -9 22 -14 30 -5 8
-21 38 -35 67 -14 28 -30 55 -35 58 -6 3 -10 14 -10 24 0 10 -7 24 -15 31 -8
7 -15 20 -15 30 0 10 -7 23 -15 30 -8 7 -12 16 -10 21 3 4 -8 23 -25 42 -16
19 -30 39 -30 45 0 5 -7 15 -15 22 -8 7 -15 20 -15 29 0 10 -13 30 -30 46 -16
16 -30 36 -30 46 0 9 -7 22 -15 29 -8 7 -15 20 -15 30 0 9 -11 26 -25 36 -14
10 -25 26 -25 35 0 8 -13 28 -30 44 -16 16 -30 36 -30 45 0 9 -18 34 -40 55
-22 21 -40 45 -40 53 0 7 -13 27 -30 44 -16 16 -30 35 -30 42 0 6 -20 32 -45
56 -25 24 -45 51 -45 60 0 8 -31 47 -70 85 -38 38 -70 76 -70 83 0 8 -52 64
-115 126 -63 61 -115 118 -115 126 0 19 -257 276 -287 287 -12 4 -71 56 -132
116 -61 59 -118 107 -125 107 -8 0 -40 25 -71 55 -32 30 -63 55 -70 55 -7 0
-33 18 -56 40 -24 22 -48 40 -54 40 -5 0 -32 20 -58 45 -27 25 -55 45 -63 45
-8 0 -32 18 -54 40 -22 22 -45 40 -51 40 -6 0 -27 14 -46 30 -18 17 -40 30
-47 30 -7 0 -23 11 -36 25 -13 14 -29 25 -35 25 -18 0 -81 35 -115 64 -18 14
-35 24 -40 21 -4 -3 -13 2 -20 10 -7 8 -20 15 -29 15 -10 0 -30 14 -46 30 -16
17 -36 30 -46 30 -9 0 -22 7 -29 15 -7 8 -21 15 -31 15 -10 0 -21 5 -24 10 -3
6 -14 10 -24 10 -10 0 -24 7 -31 15 -7 8 -21 15 -31 15 -11 0 -19 3 -19 8 0 4
-33 22 -73 40 -39 19 -79 38 -87 43 -8 5 -22 12 -30 15 -8 3 -22 10 -30 15 -8
5 -22 12 -30 15 -8 3 -22 10 -30 15 -8 5 -22 12 -30 15 -8 3 -38 17 -65 30
-28 13 -57 24 -66 24 -9 0 -41 14 -72 30 -31 17 -68 30 -81 30 -14 0 -28 5
-31 10 -3 6 -14 10 -24 10 -10 0 -24 7 -31 15 -7 8 -27 15 -45 15 -18 0 -38 7
-45 15 -7 8 -24 15 -39 15 -14 0 -35 7 -45 15 -11 8 -32 15 -47 15 -15 0 -31
5 -34 10 -3 6 -21 10 -39 10 -19 0 -39 7 -46 15 -7 8 -25 15 -40 15 -15 0 -33
7 -40 15 -8 9 -30 15 -60 15 -29 0 -52 6 -59 14 -7 9 -30 14 -58 13 -27 0 -49
5 -51 11 -2 7 -24 12 -52 12 -30 0 -52 5 -60 15 -8 9 -30 15 -57 15 -26 0 -51
6 -59 15 -10 10 -35 15 -73 15 -31 0 -62 5 -69 12 -6 6 -39 10 -80 9 -52 -1
-72 2 -82 14 -9 11 -33 15 -100 15 -67 0 -91 4 -100 15 -10 13 -38 16 -129 17
-585 5 -808 4 -1071 -4z"/>
<path d="M5955 19859 c-372 -10 -463 -15 -478 -27 -7 -6 -52 -12 -101 -15 -56
-2 -91 -8 -94 -15 -2 -8 -30 -12 -77 -12 -52 0 -76 -4 -85 -15 -8 -10 -31 -15
-71 -15 -38 0 -63 -5 -73 -15 -8 -9 -33 -15 -59 -15 -27 0 -49 -6 -57 -15 -8
-10 -31 -15 -70 -15 -39 0 -62 -5 -70 -15 -7 -8 -25 -15 -40 -15 -15 0 -33 -7
-40 -15 -8 -9 -30 -15 -60 -15 -30 0 -52 -6 -60 -15 -7 -8 -25 -15 -40 -15
-15 0 -33 -7 -40 -15 -7 -8 -27 -15 -45 -15 -18 0 -38 -7 -46 -16 -7 -9 -22
-14 -36 -11 -13 2 -28 -2 -34 -9 -6 -8 -22 -14 -35 -14 -14 0 -50 -13 -81 -30
-31 -16 -66 -30 -78 -30 -12 0 -28 -7 -35 -15 -7 -8 -20 -15 -30 -15 -10 0
-23 -7 -30 -15 -7 -8 -25 -15 -40 -15 -15 0 -33 -7 -40 -15 -7 -8 -18 -15 -25
-15 -10 0 -157 -72 -205 -100 -8 -5 -22 -11 -30 -14 -15 -6 -25 -11 -65 -34
-11 -7 -27 -15 -35 -18 -8 -3 -22 -9 -30 -14 -8 -5 -49 -26 -90 -46 -41 -20
-86 -47 -100 -59 -14 -13 -35 -26 -47 -30 -13 -3 -23 -11 -23 -16 0 -5 -8 -9
-18 -9 -10 0 -31 -13 -47 -30 -16 -16 -34 -30 -40 -30 -20 0 -90 -38 -109 -59
-11 -12 -25 -21 -32 -21 -8 0 -27 -13 -42 -30 -16 -16 -36 -30 -44 -30 -7 0
-32 -18 -53 -40 -21 -22 -45 -40 -52 -40 -8 0 -36 -20 -62 -45 -26 -25 -54
-45 -60 -45 -7 0 -36 -25 -65 -55 -29 -30 -59 -55 -67 -55 -8 0 -41 -27 -74
-60 -33 -33 -66 -60 -75 -60 -18 0 -631 -622 -646 -656 -6 -14 -38 -53 -73
-88 -34 -34 -63 -70 -65 -79 -1 -9 -28 -43 -59 -76 -31 -33 -57 -65 -57 -72 0
-6 -18 -31 -40 -55 -22 -24 -40 -49 -40 -55 0 -6 -14 -27 -30 -46 -17 -18 -30
-40 -30 -47 0 -7 -11 -23 -25 -36 -14 -13 -25 -30 -25 -38 0 -8 -14 -30 -30
-49 -17 -18 -30 -40 -30 -47 0 -7 -11 -23 -25 -36 -14 -13 -25 -31 -25 -40 0
-9 -13 -29 -30 -45 -17 -16 -30 -33 -30 -39 0 -18 -40 -93 -60 -111 -11 -10
-20 -26 -20 -35 0 -10 -7 -23 -15 -30 -8 -7 -15 -21 -15 -31 0 -11 -4 -19 -8
-19 -5 0 -16 -19 -26 -42 -9 -24 -21 -50 -27 -58 -5 -8 -12 -22 -15 -30 -3 -8
-10 -22 -15 -30 -5 -8 -12 -22 -15 -30 -3 -8 -17 -37 -30 -63 -13 -27 -24 -55
-24 -62 0 -7 -7 -18 -15 -25 -8 -7 -15 -20 -15 -30 0 -10 -7 -23 -15 -30 -8
-7 -15 -21 -15 -31 0 -11 -4 -19 -8 -19 -12 0 -42 -73 -42 -102 0 -14 -7 -31
-15 -38 -8 -7 -15 -20 -15 -30 0 -10 -7 -23 -15 -30 -8 -7 -15 -27 -15 -45 0
-18 -7 -38 -15 -45 -8 -7 -15 -21 -15 -31 0 -11 -4 -19 -10 -19 -5 0 -10 -15
-10 -34 0 -18 -7 -39 -15 -46 -8 -7 -15 -27 -15 -45 0 -18 -7 -38 -15 -45 -8
-7 -15 -27 -15 -45 0 -18 -7 -38 -15 -45 -8 -7 -15 -25 -15 -41 0 -15 -4 -31
-10 -34 -5 -3 -10 -21 -10 -39 0 -19 -7 -39 -15 -46 -9 -8 -15 -30 -15 -60 0
-30 -6 -52 -15 -60 -9 -7 -15 -30 -15 -54 0 -22 -7 -49 -15 -60 -8 -11 -12
-30 -8 -47 3 -18 -1 -38 -11 -54 -9 -13 -16 -42 -16 -63 0 -23 -6 -45 -15 -52
-10 -9 -15 -32 -15 -75 0 -43 -5 -66 -15 -75 -11 -9 -15 -33 -15 -86 0 -40 -5
-76 -10 -79 -6 -3 -10 -38 -10 -77 0 -54 -4 -76 -17 -91 -17 -18 -18 -64 -16
-680 2 -739 7 -910 29 -928 10 -8 14 -36 14 -99 0 -66 4 -91 15 -100 11 -9 15
-33 15 -85 0 -52 4 -76 15 -85 10 -8 15 -31 15 -70 0 -39 5 -62 15 -70 9 -7
15 -29 15 -55 0 -26 6 -48 15 -55 9 -8 15 -30 15 -57 0 -26 6 -51 15 -59 9 -9
15 -34 15 -58 0 -27 6 -48 15 -56 8 -7 15 -22 15 -35 0 -12 7 -36 16 -54 9
-18 13 -42 10 -55 -3 -13 1 -31 9 -42 8 -10 15 -31 15 -45 0 -15 7 -32 15 -39
8 -7 15 -25 15 -39 0 -15 7 -36 15 -47 8 -10 15 -31 15 -45 0 -15 7 -32 15
-39 8 -7 15 -20 15 -30 0 -10 7 -23 15 -30 8 -7 15 -27 15 -45 0 -19 4 -35 8
-37 12 -5 52 -86 52 -105 0 -22 32 -93 42 -93 4 0 8 -15 8 -34 0 -18 7 -39 15
-46 8 -7 15 -20 15 -30 0 -10 6 -23 14 -29 8 -7 17 -23 20 -36 4 -14 11 -25
16 -25 6 0 10 -8 10 -19 0 -10 7 -24 15 -31 8 -7 15 -18 15 -25 0 -14 60 -138
71 -145 3 -3 8 -14 10 -24 5 -23 82 -66 119 -66 15 0 33 7 40 15 7 8 20 15 29
15 10 0 27 10 39 23 17 18 22 35 22 82 0 56 -25 135 -42 135 -4 0 -8 8 -8 19
0 10 -7 24 -15 31 -8 7 -15 20 -15 30 0 10 -7 23 -15 30 -8 7 -15 20 -15 30 0
10 -7 23 -15 30 -8 7 -15 18 -15 25 0 7 -7 18 -15 25 -8 7 -15 20 -15 30 0 10
-7 23 -15 30 -8 7 -15 24 -15 38 0 29 -30 102 -42 102 -4 0 -8 8 -8 19 0 10
-7 24 -15 31 -8 7 -15 27 -15 45 0 18 -7 38 -15 45 -8 7 -15 25 -15 40 0 15
-7 33 -15 40 -8 7 -15 20 -15 30 0 10 -7 23 -15 30 -8 7 -15 27 -15 45 0 18
-7 38 -15 45 -8 7 -15 25 -15 40 0 15 -7 33 -15 40 -8 7 -15 27 -15 45 0 18
-7 38 -15 45 -10 8 -15 27 -13 52 1 21 -3 43 -10 50 -7 7 -12 24 -12 39 0 15
-7 34 -15 43 -8 8 -15 32 -15 53 0 22 -7 48 -15 59 -8 11 -14 42 -15 75 0 38
-5 61 -15 69 -9 7 -15 29 -15 55 0 26 -6 48 -15 55 -10 8 -15 31 -15 70 0 39
-5 62 -15 70 -11 9 -15 34 -15 100 0 66 -4 91 -15 100 -11 10 -15 35 -15 110
0 75 -4 100 -15 110 -12 10 -15 45 -15 200 0 155 -3 190 -15 200 -12 10 -15
47 -15 210 0 138 3 199 11 202 8 3 11 60 10 189 -2 157 0 188 13 199 13 10 16
34 16 112 0 74 4 105 16 123 12 19 14 38 9 83 -5 47 -3 62 9 75 11 11 16 34
16 75 0 41 5 63 15 72 10 8 15 31 15 69 1 33 7 64 15 75 8 11 15 39 15 62 0
24 5 46 10 49 6 3 10 26 10 49 0 27 6 48 15 56 9 8 15 30 15 60 0 30 6 52 15
60 8 7 15 26 15 42 0 16 7 36 15 44 8 9 15 28 15 44 0 16 4 32 10 35 5 3 10
21 10 39 0 19 7 39 15 46 8 7 15 27 15 45 0 18 7 38 15 45 8 7 15 28 15 46 0
19 4 34 8 34 12 0 42 73 42 102 0 14 7 31 15 38 8 7 15 20 15 30 0 10 7 23 15
30 8 7 15 27 15 45 0 18 7 38 15 45 8 7 15 21 15 31 0 11 5 19 10 19 6 0 10 8
10 19 0 10 7 24 15 31 8 7 15 20 15 30 0 10 7 23 15 30 8 7 15 20 15 30 0 10
7 23 15 30 8 7 15 18 15 25 0 6 11 33 25 59 14 26 25 53 25 60 0 8 7 19 15 26
8 7 15 20 15 30 0 10 7 23 15 30 8 7 15 21 15 31 0 11 4 19 10 19 5 0 12 11
16 24 3 13 17 34 30 47 13 12 24 27 24 33 0 18 40 93 60 111 11 10 20 26 20
35 0 10 7 23 15 30 8 7 15 20 15 29 0 10 14 30 30 46 17 16 30 36 30 45 0 9
11 27 25 40 14 13 25 31 25 40 0 9 14 29 30 45 16 16 30 36 30 44 0 9 18 33
40 55 22 21 40 46 40 55 0 9 25 40 55 70 30 29 55 61 55 70 0 9 25 41 55 71
30 29 55 60 55 68 0 8 59 74 130 147 72 73 130 139 130 146 0 19 161 179 179
179 8 0 71 59 141 130 69 72 133 130 141 130 8 0 39 25 69 55 30 30 60 55 68
55 7 0 34 20 60 45 26 25 51 45 57 45 6 0 29 18 50 40 21 22 46 40 55 40 9 0
29 14 45 30 16 17 36 30 45 30 9 0 29 14 45 30 16 17 34 30 40 30 6 0 22 11
35 25 13 14 31 25 40 25 9 0 29 14 45 30 16 17 36 30 46 30 9 0 22 7 29 15 7
8 18 15 26 15 7 0 24 11 38 25 14 14 32 25 40 25 8 0 17 4 20 9 3 5 43 27 88
50 80 40 98 49 136 71 9 6 24 13 32 16 8 3 22 10 30 15 8 5 22 12 30 15 49 20
80 36 85 44 3 6 14 10 24 10 10 0 24 7 31 15 7 8 20 15 30 15 10 0 23 7 30 15
7 8 25 15 40 15 15 0 33 7 40 15 7 8 20 15 30 15 10 0 23 7 30 15 7 8 27 15
46 15 18 0 35 4 38 9 10 16 86 51 109 51 13 0 27 4 33 10 5 5 25 12 44 14 19
2 36 9 38 15 2 6 18 11 37 11 18 0 38 7 45 15 7 8 25 15 41 15 15 0 34 7 43
15 8 9 33 15 59 15 27 0 49 6 57 15 7 9 29 15 55 15 26 0 48 6 55 15 7 9 29
15 55 15 26 0 48 6 55 15 9 10 32 15 75 15 43 0 66 5 75 15 8 10 31 15 70 15
39 0 62 5 70 15 9 11 33 15 85 15 52 0 76 4 85 15 10 12 37 15 125 15 88 0
115 3 125 15 11 13 80 15 514 15 358 0 505 -3 513 -11 7 -7 48 -11 111 -10 78
2 101 -1 112 -14 9 -11 33 -15 100 -15 66 0 91 -4 100 -15 8 -10 31 -15 69
-15 31 0 62 -5 69 -12 6 -6 31 -11 55 -9 30 1 48 -3 57 -14 8 -9 29 -15 57
-15 26 0 51 -6 59 -15 9 -8 28 -15 43 -15 15 0 32 -5 39 -12 6 -6 33 -13 58
-14 26 -2 52 -8 58 -14 5 -5 22 -10 37 -10 15 0 32 -7 39 -15 7 -8 27 -15 45
-15 18 0 38 -7 45 -15 7 -8 20 -15 29 -15 9 0 25 -7 35 -15 11 -8 32 -15 47
-15 15 0 31 -4 34 -10 3 -5 16 -10 29 -10 12 0 61 -20 109 -45 48 -25 99 -45
112 -45 13 0 27 -4 30 -10 3 -5 14 -10 24 -10 10 0 24 -7 31 -15 7 -8 20 -15
30 -15 10 0 23 -7 30 -15 7 -8 20 -15 30 -15 10 0 23 -7 30 -15 7 -8 19 -15
27 -15 8 0 21 -7 30 -15 8 -8 18 -13 23 -10 4 3 13 -2 20 -10 7 -8 20 -15 30
-15 10 0 23 -7 30 -15 7 -8 20 -15 30 -15 10 0 23 -7 30 -15 7 -8 20 -15 29
-15 10 0 28 -11 41 -25 13 -14 31 -25 41 -25 9 0 22 -7 29 -15 7 -8 20 -15 30
-15 10 0 23 -7 30 -15 7 -8 20 -15 30 -15 9 0 25 -9 35 -20 10 -11 38 -29 64
-41 25 -13 61 -35 79 -51 18 -15 39 -28 46 -28 7 0 23 -11 36 -25 13 -14 30
-25 38 -25 8 0 30 -13 49 -30 18 -16 40 -30 47 -30 7 0 23 -11 36 -25 13 -14
31 -25 40 -25 9 0 29 -13 45 -30 16 -16 36 -30 45 -30 9 0 34 -18 55 -40 21
-22 46 -40 55 -40 9 0 29 -13 45 -30 16 -16 36 -30 45 -30 9 0 34 -18 55 -40
21 -22 46 -40 55 -40 9 0 40 -25 70 -55 30 -30 61 -55 70 -55 9 0 40 -25 70
-55 30 -30 61 -55 70 -55 9 0 47 -31 85 -70 38 -38 76 -70 85 -70 8 0 53 -38
100 -85 47 -47 91 -85 100 -85 8 0 65 -49 125 -110 60 -60 116 -110 125 -110
8 0 108 -92 221 -203 747 -731 968 -951 962 -960 -3 -5 73 -87 171 -181 97
-95 176 -178 176 -187 0 -8 56 -70 123 -137 l124 -122 69 0 c38 0 74 4 80 8
38 27 67 169 36 180 -7 2 -12 11 -12 20 0 10 -69 87 -154 171 -85 85 -157 164
-160 175 -3 12 -93 106 -201 210 -107 103 -195 196 -195 206 0 9 -78 92 -172
185 -95 92 -297 290 -449 441 -152 151 -283 274 -292 274 -8 0 -86 70 -174
155 -87 85 -165 155 -173 155 -9 0 -58 43 -110 95 -52 52 -102 95 -110 95 -9
0 -47 32 -85 70 -38 39 -76 70 -84 70 -8 0 -42 27 -77 60 -34 33 -68 60 -76
60 -8 0 -32 18 -53 40 -21 22 -46 40 -55 40 -9 0 -40 25 -70 55 -30 30 -61 55
-68 55 -8 0 -30 14 -49 30 -18 17 -39 30 -46 30 -7 0 -31 18 -52 40 -21 22
-46 40 -55 40 -9 0 -27 11 -40 25 -13 14 -31 25 -40 25 -9 0 -29 14 -45 30
-16 17 -36 30 -45 30 -9 0 -29 14 -45 30 -16 17 -36 30 -45 30 -9 0 -27 11
-40 25 -13 14 -30 25 -38 25 -7 0 -27 14 -44 30 -16 17 -37 30 -45 30 -9 0
-23 8 -32 19 -9 10 -41 30 -72 45 -32 14 -63 33 -70 42 -14 17 -86 54 -105 54
-6 0 -17 7 -24 15 -7 8 -20 15 -30 15 -9 0 -25 9 -36 21 -19 22 -89 59 -110
59 -6 0 -17 7 -24 15 -7 8 -20 15 -30 15 -10 0 -23 7 -30 15 -7 8 -21 15 -31
15 -11 0 -19 4 -19 8 0 9 -69 42 -87 42 -6 0 -16 7 -23 15 -7 8 -20 15 -30 15
-10 0 -23 7 -30 15 -7 8 -27 15 -45 15 -18 0 -38 7 -45 15 -7 8 -18 15 -26 15
-7 0 -34 11 -60 25 -26 14 -55 25 -64 25 -9 0 -42 14 -73 30 -31 17 -65 30
-75 30 -11 0 -40 11 -66 25 -26 14 -58 25 -72 25 -14 0 -32 7 -40 15 -9 8 -27
15 -42 15 -15 0 -36 7 -46 15 -11 8 -32 15 -47 15 -15 0 -31 5 -34 10 -3 6
-26 10 -50 10 -25 0 -50 6 -59 15 -8 9 -33 15 -59 15 -27 0 -49 6 -57 15 -8 9
-30 15 -57 15 -26 0 -51 6 -59 15 -10 9 -25 12 -44 8 -19 -3 -39 0 -55 11 -16
11 -46 16 -93 16 -50 0 -73 4 -82 15 -9 11 -34 15 -99 15 -55 0 -91 4 -99 12
-8 8 -59 13 -155 15 -78 1 -225 4 -327 6 -102 2 -320 1 -485 -4z"/>
<path d="M13479 18923 c-115 -3 -150 -7 -159 -18 -9 -11 -35 -15 -97 -15 -56
0 -94 -5 -114 -16 -19 -9 -50 -14 -82 -13 -35 2 -63 -3 -86 -15 -20 -11 -46
-16 -65 -13 -18 3 -45 -3 -66 -13 -22 -10 -49 -15 -71 -13 -24 3 -41 0 -52
-11 -9 -10 -33 -16 -60 -16 -27 0 -49 -6 -57 -15 -7 -8 -24 -15 -39 -15 -14 0
-39 -7 -55 -15 -15 -8 -43 -15 -61 -15 -18 0 -38 -7 -45 -15 -7 -8 -25 -15
-40 -15 -15 0 -33 -7 -40 -15 -7 -8 -27 -15 -45 -15 -18 0 -38 -7 -45 -15 -7
-8 -23 -15 -36 -15 -12 0 -44 -11 -70 -25 -26 -14 -56 -25 -68 -25 -12 -1 -39
-12 -61 -25 -22 -14 -47 -27 -55 -31 -8 -3 -30 -12 -48 -20 -18 -8 -41 -14
-52 -14 -10 0 -22 -5 -25 -11 -4 -5 -17 -14 -28 -20 -12 -5 -29 -13 -37 -18
-8 -5 -48 -24 -87 -43 -40 -18 -73 -36 -73 -40 0 -5 -8 -8 -19 -8 -10 0 -24
-7 -31 -15 -7 -8 -20 -15 -30 -15 -10 0 -23 -7 -30 -15 -7 -8 -20 -15 -29 -15
-16 0 -91 -68 -91 -83 0 -4 97 -103 216 -220 119 -116 255 -255 301 -307 47
-52 164 -175 262 -272 177 -179 203 -197 231 -163 7 8 18 15 25 15 7 0 18 7
25 15 7 8 27 15 45 15 18 0 38 7 45 15 7 8 20 15 30 15 10 0 23 7 30 15 7 8
23 15 36 15 12 0 44 11 70 25 26 14 57 25 69 25 13 0 28 7 35 15 7 8 27 15 45
15 18 0 38 7 45 15 7 8 27 15 44 15 18 0 41 7 52 15 10 8 35 15 55 15 20 0 42
7 49 15 8 9 30 15 59 15 25 0 55 7 65 15 12 9 41 15 71 15 30 0 59 6 71 15 13
10 44 14 95 15 56 0 80 4 89 15 10 12 42 15 170 15 128 0 160 3 170 15 10 12
37 15 120 15 83 0 110 -3 120 -15 10 -12 42 -15 169 -15 105 0 161 -4 169 -12
6 -6 39 -10 80 -9 52 1 72 -2 82 -14 9 -10 30 -15 72 -15 39 0 64 -5 74 -15 9
-9 34 -15 58 -15 25 0 48 -6 55 -14 7 -9 30 -14 58 -13 27 0 49 -5 51 -11 2
-7 18 -12 37 -12 18 0 38 -7 45 -15 7 -8 27 -15 45 -15 18 0 38 -7 45 -15 7
-8 27 -15 45 -15 18 0 38 -7 45 -15 7 -8 21 -15 31 -15 10 0 21 -4 24 -10 3
-5 19 -10 34 -10 16 0 34 -7 41 -15 7 -8 20 -15 30 -15 10 0 23 -7 30 -15 7
-8 18 -15 25 -15 6 0 33 -11 59 -25 26 -14 53 -25 60 -25 8 0 19 -7 26 -15 7
-8 20 -15 30 -15 10 0 23 -7 30 -15 7 -8 21 -15 31 -15 11 0 19 -4 19 -10 0
-5 11 -12 24 -16 13 -3 34 -17 47 -30 12 -13 30 -24 40 -24 9 0 22 -7 29 -15
7 -8 19 -15 27 -15 9 0 31 -13 50 -30 18 -16 39 -30 46 -30 7 0 31 -18 52 -40
21 -22 46 -40 55 -40 9 0 34 -18 55 -40 21 -22 46 -40 55 -40 9 0 40 -25 70
-56 30 -31 75 -69 100 -85 51 -34 270 -247 270 -263 0 -6 34 -45 75 -86 41
-41 75 -81 75 -89 0 -8 21 -38 48 -66 80 -89 122 -143 122 -157 0 -8 13 -27
30 -43 16 -16 28 -30 26 -33 -8 -7 46 -103 65 -115 10 -6 19 -19 19 -28 0 -9
7 -22 15 -29 8 -7 15 -20 15 -30 0 -10 7 -23 15 -30 8 -7 15 -20 15 -30 0 -10
7 -23 15 -30 8 -7 15 -21 15 -30 0 -10 3 -20 8 -22 10 -4 42 -67 42 -83 0 -7
7 -18 15 -25 8 -7 15 -25 15 -41 0 -15 7 -34 15 -43 8 -8 15 -21 15 -29 0 -8
7 -20 15 -27 8 -7 15 -27 15 -45 0 -18 7 -38 15 -45 8 -7 15 -25 15 -40 0 -15
7 -33 15 -40 8 -7 15 -27 15 -45 0 -18 7 -38 15 -45 9 -7 15 -29 15 -55 0 -26
6 -48 15 -55 10 -8 15 -30 15 -60 0 -30 5 -50 13 -52 8 -3 13 -31 14 -83 1
-51 6 -81 15 -86 8 -5 13 -37 15 -95 1 -52 7 -92 15 -102 10 -11 14 -90 16
-317 3 -266 2 -303 -12 -314 -13 -11 -16 -35 -16 -125 0 -74 -4 -116 -12 -124
-7 -7 -11 -35 -10 -71 2 -42 -2 -62 -13 -71 -10 -9 -15 -31 -15 -75 0 -43 -5
-66 -15 -75 -9 -7 -15 -30 -15 -54 0 -22 -7 -50 -15 -60 -8 -11 -15 -39 -15
-62 0 -24 -4 -46 -10 -49 -5 -3 -10 -19 -10 -34 0 -15 -7 -36 -15 -47 -8 -10
-15 -31 -15 -45 0 -15 -7 -32 -15 -39 -8 -7 -15 -27 -15 -45 0 -18 -7 -38 -15
-45 -8 -7 -15 -25 -15 -41 0 -15 -11 -49 -25 -75 -14 -26 -25 -54 -25 -63 0
-9 -18 -52 -40 -95 -22 -43 -40 -90 -40 -106 0 -15 -7 -33 -15 -40 -8 -7 -15
-20 -15 -30 0 -10 -7 -23 -15 -30 -8 -7 -15 -21 -15 -31 0 -11 -4 -19 -8 -19
-4 0 -21 -28 -36 -62 -16 -35 -41 -82 -57 -106 -16 -23 -40 -66 -54 -96 -14
-29 -34 -61 -45 -71 -11 -10 -20 -26 -20 -35 0 -10 -7 -23 -15 -30 -8 -7 -15
-20 -15 -29 0 -10 -11 -28 -25 -41 -14 -13 -25 -29 -25 -36 0 -7 -13 -29 -30
-47 -16 -19 -30 -40 -30 -47 0 -6 -13 -25 -30 -42 -16 -16 -30 -36 -30 -44 0
-8 -18 -32 -40 -54 -22 -22 -40 -46 -40 -54 0 -7 -18 -32 -40 -55 -22 -22 -40
-46 -40 -52 0 -7 -20 -34 -45 -60 -25 -26 -45 -54 -45 -62 0 -7 -11 -24 -25
-37 -14 -13 -25 -31 -25 -40 0 -9 -9 -25 -20 -35 -22 -20 -71 -110 -64 -118 2
-2 -2 -10 -11 -17 -8 -7 -15 -20 -15 -30 0 -10 -7 -23 -15 -30 -8 -7 -15 -20
-15 -30 0 -10 -7 -23 -15 -30 -8 -7 -15 -20 -15 -30 0 -10 -7 -23 -15 -30 -8
-7 -15 -21 -15 -31 0 -10 -4 -21 -10 -24 -5 -3 -10 -19 -10 -34 0 -16 -7 -34
-15 -41 -8 -7 -15 -27 -15 -45 0 -18 -7 -38 -15 -45 -8 -7 -15 -27 -15 -44 0
-18 -5 -37 -12 -44 -6 -6 -11 -35 -9 -65 1 -38 -3 -57 -14 -67 -22 -19 -23
-551 0 -570 10 -8 15 -31 15 -70 0 -39 5 -62 15 -70 9 -8 15 -30 15 -60 0 -30
6 -52 15 -60 8 -7 15 -25 15 -40 0 -15 7 -33 15 -40 8 -7 15 -20 15 -30 0 -10
7 -23 15 -30 8 -7 15 -28 15 -46 0 -19 5 -34 10 -34 6 0 10 -8 10 -19 0 -10 7
-24 15 -31 8 -7 15 -20 15 -30 0 -10 7 -23 15 -30 8 -7 15 -18 15 -26 0 -17
28 -44 45 -44 18 0 555 542 575 580 8 15 54 69 103 119 48 50 87 97 87 104 0
6 32 45 70 85 39 40 70 79 70 86 0 7 25 39 55 70 30 31 55 62 55 69 0 8 20 36
45 63 25 27 45 54 45 60 0 6 15 27 34 46 19 19 41 48 49 64 9 16 30 44 47 63
16 18 30 39 30 46 0 6 9 20 21 31 12 10 28 32 36 49 9 16 31 47 49 68 19 20
34 42 34 48 0 6 14 27 30 46 17 18 30 40 30 47 0 7 11 23 25 36 14 13 25 31
25 41 0 9 7 22 15 29 8 7 15 20 15 29 0 10 11 28 25 41 14 13 25 31 25 41 0 9
7 22 15 29 8 7 15 20 15 29 0 10 14 30 30 46 17 16 30 36 30 46 0 9 7 22 15
29 8 7 15 19 15 27 0 8 11 25 25 39 14 14 25 34 25 44 0 11 3 20 8 20 4 0 22
33 40 73 19 39 38 79 43 87 5 8 12 22 15 30 3 8 10 22 15 30 5 8 12 22 15 30
3 8 10 22 15 30 5 8 12 22 15 30 3 8 17 38 30 65 13 28 24 55 24 61 0 7 7 17
15 24 8 7 15 21 15 31 0 11 4 27 9 37 30 55 49 101 45 105 -2 2 2 10 11 17 8
7 15 27 15 45 0 18 7 38 15 45 8 7 15 20 15 30 0 10 7 23 15 30 8 7 15 25 15
41 0 15 4 30 9 33 5 3 11 18 14 33 7 40 32 102 45 115 7 7 12 26 12 44 0 17 7
37 16 45 10 8 14 22 10 40 -3 15 1 34 9 45 8 11 15 35 15 55 0 20 7 42 15 49
8 7 15 27 15 45 0 18 7 38 15 45 9 7 15 29 15 52 0 21 7 50 16 63 11 17 14 36
10 56 -3 19 0 42 9 59 8 16 15 49 15 73 0 27 6 49 15 57 11 9 15 33 15 84 1
47 6 78 16 91 10 14 14 42 13 98 -1 47 3 83 10 90 7 7 11 59 11 143 0 108 3
134 16 145 14 11 15 48 13 308 -3 229 -7 300 -18 320 -9 17 -15 69 -17 155 -2
91 -8 140 -19 162 -10 21 -15 55 -13 92 1 38 -3 65 -13 79 -10 14 -14 40 -13
75 2 33 -2 61 -12 75 -7 12 -14 40 -14 61 0 23 -6 45 -15 52 -9 7 -15 29 -15
55 0 26 -6 48 -15 55 -9 7 -15 29 -15 54 0 23 -7 51 -15 62 -8 10 -15 31 -15
45 0 15 -7 32 -15 39 -8 7 -15 27 -15 45 0 18 -7 38 -15 45 -8 7 -15 25 -15
40 0 15 -7 33 -15 40 -8 7 -15 25 -15 39 0 15 -12 52 -26 82 -15 30 -27 61
-27 69 0 8 -4 20 -9 27 -21 26 -48 88 -48 109 0 12 -7 27 -15 34 -8 7 -15 20
-15 30 0 10 -7 23 -15 30 -8 7 -15 20 -15 30 0 10 -7 23 -15 30 -8 7 -15 21
-15 31 0 11 -4 19 -10 19 -5 0 -10 8 -10 19 0 10 -7 24 -15 31 -8 7 -15 20
-15 29 0 10 -13 30 -30 46 -16 16 -30 36 -30 46 0 9 -7 22 -15 29 -8 7 -15 18
-15 25 0 7 -7 18 -15 25 -8 7 -15 20 -15 29 0 10 -11 28 -25 41 -14 13 -25 29
-25 36 0 7 -13 29 -30 47 -16 19 -30 40 -30 45 0 6 -13 27 -30 45 -16 19 -30
38 -30 42 0 4 -18 27 -40 52 -22 25 -40 51 -40 57 0 7 -20 32 -45 56 -25 24
-45 52 -45 61 0 9 -25 40 -55 68 -30 29 -55 58 -55 65 0 17 -555 566 -572 566
-7 0 -42 27 -78 60 -36 33 -70 60 -76 60 -6 0 -37 25 -69 55 -32 30 -64 55
-71 55 -8 0 -28 14 -46 30 -17 17 -35 30 -41 30 -5 0 -29 18 -53 40 -24 22
-50 40 -58 40 -7 0 -20 7 -27 16 -7 9 -41 29 -74 45 -34 16 -70 38 -80 49 -10
11 -26 20 -35 20 -10 0 -23 7 -30 15 -7 8 -19 15 -27 15 -7 0 -27 9 -43 20
-17 11 -43 29 -60 40 -16 11 -36 20 -43 20 -8 0 -20 7 -27 15 -7 8 -20 15 -30
15 -10 0 -23 7 -30 15 -7 8 -20 15 -30 15 -10 0 -23 7 -30 15 -7 8 -21 15 -31
15 -11 0 -19 4 -19 8 0 8 -56 34 -95 45 -44 12 -96 34 -107 45 -7 7 -20 12
-29 12 -9 0 -22 7 -29 15 -7 9 -21 13 -30 10 -18 -6 -95 28 -106 46 -3 5 -20
9 -38 9 -19 0 -39 7 -46 15 -7 8 -27 15 -45 15 -18 0 -38 7 -45 15 -7 9 -21
13 -35 9 -13 -3 -28 1 -38 10 -8 9 -29 16 -45 16 -16 0 -35 7 -42 15 -8 9 -30
15 -60 15 -30 0 -52 6 -60 15 -7 9 -29 15 -54 15 -23 0 -47 5 -54 12 -6 6 -31
11 -55 9 -30 -1 -48 3 -57 14 -8 10 -30 15 -70 15 -39 0 -62 5 -70 15 -9 11
-33 15 -90 15 -52 0 -80 4 -82 12 -3 8 -34 11 -104 9 -81 -2 -103 1 -113 13
-12 14 -59 16 -385 14 -204 -1 -437 -4 -517 -5z"/>
<path d="M5955 18877 c-14 -8 -92 -13 -252 -15 -185 -3 -234 -6 -244 -18 -8
-10 -36 -14 -99 -14 -66 0 -91 -4 -100 -15 -9 -11 -33 -15 -85 -15 -52 0 -76
-4 -85 -15 -7 -9 -30 -15 -54 -15 -22 0 -50 -7 -60 -15 -12 -9 -42 -15 -77
-15 -32 0 -59 -5 -61 -10 -2 -6 -18 -12 -37 -15 -19 -2 -39 -9 -44 -14 -6 -6
-30 -11 -53 -11 -25 0 -47 -6 -54 -15 -7 -8 -27 -15 -45 -15 -18 0 -38 -7 -45
-15 -7 -8 -25 -15 -40 -15 -15 0 -33 -7 -40 -15 -7 -8 -27 -15 -45 -15 -18 0
-38 -7 -45 -15 -7 -8 -20 -15 -30 -15 -10 0 -23 -7 -30 -15 -7 -8 -23 -15 -35
-15 -13 0 -58 -18 -101 -40 -43 -22 -88 -40 -100 -40 -12 0 -27 -7 -34 -15 -7
-8 -20 -15 -30 -15 -10 0 -23 -7 -30 -15 -7 -8 -20 -15 -30 -15 -10 0 -23 -7
-30 -15 -7 -8 -18 -15 -25 -15 -7 0 -18 -7 -25 -15 -7 -8 -20 -15 -30 -15 -9
0 -25 -9 -35 -20 -11 -12 -45 -33 -77 -48 -32 -14 -58 -30 -58 -34 0 -4 -9 -8
-20 -8 -11 0 -32 -13 -47 -30 -14 -16 -34 -30 -43 -30 -9 0 -27 -11 -40 -25
-13 -14 -29 -25 -36 -25 -7 0 -29 -13 -47 -30 -19 -16 -40 -30 -46 -30 -6 0
-23 -13 -38 -30 -14 -16 -34 -30 -43 -30 -9 0 -34 -18 -55 -40 -21 -22 -45
-40 -53 -40 -8 0 -42 -27 -76 -60 -35 -33 -68 -60 -73 -60 -6 0 -59 -48 -117
-107 -58 -60 -126 -124 -152 -143 -89 -68 -115 -93 -132 -126 -9 -18 -68 -84
-130 -147 -61 -63 -112 -120 -112 -128 0 -8 -27 -43 -60 -78 -33 -35 -60 -69
-60 -75 0 -7 -18 -31 -40 -55 -22 -23 -40 -48 -40 -54 0 -7 -18 -32 -40 -55
-22 -24 -40 -48 -40 -54 0 -6 -13 -26 -30 -45 -16 -18 -30 -40 -30 -47 0 -7
-11 -23 -25 -36 -14 -13 -25 -31 -25 -41 0 -9 -7 -22 -15 -29 -8 -7 -15 -20
-15 -30 0 -9 -9 -25 -21 -36 -22 -19 -59 -89 -59 -110 0 -6 -7 -17 -15 -24 -8
-7 -15 -20 -15 -29 0 -10 -13 -30 -30 -46 -16 -16 -30 -36 -30 -46 0 -9 -7
-22 -15 -29 -8 -7 -15 -18 -15 -25 0 -7 -18 -47 -40 -89 -22 -42 -40 -84 -40
-95 0 -10 -11 -39 -25 -65 -14 -26 -25 -53 -25 -60 0 -8 -7 -19 -15 -26 -8 -7
-15 -27 -15 -46 0 -18 -4 -36 -10 -39 -16 -10 -45 -78 -42 -101 2 -11 -4 -27
-12 -34 -9 -7 -16 -27 -16 -45 0 -18 -7 -38 -15 -45 -8 -7 -15 -26 -15 -42 0
-16 -7 -36 -15 -44 -8 -9 -15 -27 -15 -42 0 -15 -7 -35 -14 -45 -7 -9 -11 -27
-9 -40 3 -14 -2 -29 -11 -36 -10 -9 -16 -30 -16 -58 0 -26 -6 -51 -15 -59 -9
-9 -15 -34 -15 -58 0 -28 -6 -48 -16 -57 -12 -10 -15 -25 -11 -56 3 -25 -1
-53 -9 -69 -8 -14 -14 -52 -14 -84 0 -39 -5 -62 -15 -70 -11 -9 -15 -34 -15
-94 -1 -56 -5 -87 -16 -101 -11 -15 -14 -46 -13 -134 1 -79 -2 -116 -9 -119
-9 -3 -12 -104 -12 -377 0 -319 2 -376 15 -389 12 -11 15 -42 15 -140 0 -97 3
-128 15 -140 11 -11 15 -37 15 -99 0 -63 4 -88 15 -97 10 -8 15 -31 15 -70 0
-39 5 -62 15 -70 9 -8 15 -30 15 -59 0 -25 7 -55 15 -65 9 -12 15 -42 15 -72
0 -34 5 -56 15 -64 8 -7 15 -25 15 -40 0 -15 7 -33 15 -40 9 -8 15 -30 15 -60
0 -30 6 -52 15 -60 8 -7 15 -23 15 -37 0 -13 7 -35 16 -48 9 -14 14 -31 11
-39 -3 -8 1 -22 8 -33 8 -10 15 -30 15 -44 0 -15 7 -32 15 -39 8 -7 15 -23 15
-36 0 -24 35 -100 51 -110 5 -3 9 -20 9 -38 0 -19 7 -39 15 -46 8 -7 15 -21
15 -31 0 -10 4 -21 10 -24 5 -3 17 -23 26 -43 8 -20 20 -44 25 -52 5 -8 12
-22 15 -30 3 -8 11 -28 19 -45 7 -16 16 -42 19 -57 4 -16 11 -28 16 -28 6 0
10 -8 10 -19 0 -10 7 -24 16 -32 8 -7 24 -29 35 -48 10 -20 23 -43 28 -51 5
-8 17 -33 26 -54 18 -41 60 -86 80 -86 11 0 377 364 771 768 104 107 191 203
192 215 4 21 -31 102 -49 112 -5 4 -9 14 -9 24 0 10 -7 24 -15 31 -8 7 -15 27
-15 46 0 18 -4 35 -9 38 -16 10 -51 86 -51 110 0 13 -7 29 -15 36 -8 7 -15 27
-15 45 0 19 -5 35 -11 37 -5 2 -11 18 -11 36 -1 18 -7 37 -15 43 -7 6 -13 31
-13 54 0 26 -6 48 -15 55 -8 7 -15 27 -15 44 0 18 -7 41 -15 52 -8 11 -15 41
-15 70 0 33 -5 56 -15 64 -10 8 -15 31 -15 70 0 39 -5 62 -15 70 -12 10 -15
36 -15 113 0 74 -4 105 -15 117 -12 13 -15 73 -15 365 -1 240 2 351 9 353 7 2
11 39 11 97 0 70 4 96 15 105 11 9 15 33 15 85 0 52 4 76 15 85 9 8 15 29 15
56 0 23 4 46 10 49 6 3 10 28 10 54 0 31 5 53 15 61 8 7 15 26 15 42 0 16 7
36 15 44 8 9 15 28 15 43 0 15 5 32 11 38 6 6 13 26 15 44 2 18 9 38 14 43 6
6 10 24 10 42 0 17 7 37 15 44 8 7 15 20 15 30 0 10 7 23 15 30 8 7 15 22 15
35 0 12 11 43 25 69 14 26 25 53 25 60 0 8 7 19 15 26 8 7 15 20 15 30 0 10 7
23 15 30 8 7 15 20 15 30 0 10 7 23 15 30 8 7 15 20 15 30 0 10 7 23 15 30 8
7 13 16 10 20 -3 4 9 22 25 40 17 18 30 41 30 51 0 10 4 19 10 19 5 0 12 11
16 24 3 13 17 34 30 47 13 12 24 29 24 37 0 8 11 28 25 46 54 66 96 122 113
151 9 16 45 59 78 95 34 36 63 72 65 81 5 23 334 359 351 359 7 0 43 30 78 66
36 36 79 71 95 78 17 7 45 29 62 50 18 20 38 36 46 36 7 0 24 11 37 25 13 14
29 25 36 25 7 0 28 12 46 28 18 15 56 38 83 52 28 13 58 34 68 47 10 13 27 23
37 23 9 0 23 7 30 15 7 8 18 15 25 15 16 0 133 59 140 71 4 5 14 9 24 9 10 0
24 7 31 15 7 8 20 15 30 15 10 0 23 7 30 15 7 8 25 15 40 15 15 0 33 7 40 15
7 8 20 15 30 15 10 0 23 7 30 15 7 8 27 15 45 15 18 0 38 7 45 15 7 8 22 15
35 15 12 0 36 7 54 16 18 9 42 13 56 10 14 -4 29 0 39 9 8 8 32 15 53 15 22 0
48 7 59 15 10 8 38 15 60 15 24 0 47 6 54 15 9 11 33 15 85 15 52 0 76 4 85
15 10 12 39 15 140 15 101 0 130 3 140 15 10 12 45 15 196 15 111 0 185 -4
189 -10 4 -6 63 -10 143 -10 100 -1 144 -5 162 -15 15 -9 53 -14 96 -15 53 0
75 -4 85 -16 10 -12 25 -15 56 -11 25 3 53 -1 69 -9 14 -8 45 -14 69 -14 26 0
47 -6 55 -15 7 -9 30 -15 54 -15 22 0 50 -7 60 -15 11 -8 31 -15 45 -15 14 0
35 -7 45 -15 11 -8 28 -13 38 -9 10 3 32 -2 50 -10 17 -9 41 -16 53 -16 11 0
30 -7 41 -15 10 -8 26 -15 35 -15 9 0 22 -7 29 -15 7 -8 25 -15 40 -15 15 0
48 -11 74 -25 26 -14 60 -25 76 -25 16 0 31 -4 35 -9 7 -13 183 -98 217 -105
14 -3 40 -17 56 -31 17 -14 37 -25 45 -25 8 0 20 -7 27 -15 7 -8 18 -15 25
-15 18 0 185 -87 209 -109 24 -21 83 -51 101 -51 6 0 24 -13 40 -30 16 -16 36
-30 45 -30 9 0 27 -11 40 -25 13 -14 31 -25 40 -25 9 0 29 -13 45 -30 16 -16
36 -30 45 -30 9 0 34 -18 55 -40 21 -22 46 -40 55 -40 9 0 36 -20 60 -45 24
-25 51 -45 60 -45 9 0 34 -18 55 -40 21 -22 46 -40 55 -40 9 0 29 -13 45 -30
16 -16 36 -30 45 -30 9 0 27 -11 40 -25 13 -14 31 -25 41 -25 9 0 22 -7 29
-15 7 -8 20 -15 29 -15 9 0 25 -11 35 -25 10 -14 27 -25 36 -25 10 0 23 -7 30
-15 7 -8 20 -15 30 -15 10 0 23 -7 30 -15 7 -8 27 -15 45 -15 18 0 38 -7 45
-15 7 -8 21 -15 31 -15 10 0 21 -4 24 -10 3 -5 19 -10 34 -10 15 0 36 -7 47
-15 10 -8 31 -15 45 -15 15 0 32 -7 39 -15 8 -9 30 -15 60 -15 27 0 52 -6 59
-13 8 -10 33 -12 96 -9 67 4 90 1 110 -12 34 -23 256 -24 275 -1 9 11 34 15
99 15 61 0 93 4 107 15 11 8 41 15 70 15 33 0 56 5 64 15 7 8 26 15 42 15 16
0 36 7 44 15 9 8 26 15 38 15 12 0 46 11 74 25 29 14 60 25 71 25 10 0 24 7
31 15 7 8 20 15 30 15 10 0 23 7 30 15 7 8 20 15 30 15 10 0 23 6 30 14 6 8
21 16 33 18 12 2 23 10 25 19 3 18 -562 575 -606 598 -15 7 -68 53 -118 102
-50 49 -97 89 -104 89 -8 0 -46 32 -86 70 -39 39 -78 70 -85 70 -6 0 -38 25
-70 55 -32 30 -64 55 -72 55 -7 0 -24 12 -38 26 -13 14 -46 41 -74 59 -27 17
-59 42 -69 54 -11 11 -26 21 -34 21 -8 0 -37 20 -63 45 -26 25 -54 45 -62 45
-7 0 -24 11 -37 25 -13 14 -31 25 -40 25 -9 0 -29 14 -45 30 -16 17 -33 30
-37 30 -5 0 -45 25 -89 55 -44 30 -85 55 -91 55 -6 0 -26 14 -45 30 -18 17
-40 30 -47 30 -7 0 -23 11 -36 25 -13 14 -31 25 -41 25 -9 0 -22 7 -29 15 -7
8 -19 15 -27 15 -8 0 -24 11 -35 25 -11 14 -28 25 -38 25 -9 0 -23 7 -30 15
-7 8 -17 15 -23 15 -19 0 -155 71 -173 91 -9 10 -25 19 -34 19 -10 0 -23 7
-30 15 -7 8 -20 15 -30 15 -10 0 -23 7 -30 15 -7 8 -20 15 -30 15 -10 0 -23 7
-30 15 -7 8 -18 15 -25 15 -7 0 -47 18 -89 40 -42 22 -84 40 -95 40 -10 0 -39
11 -65 25 -26 14 -53 25 -60 25 -8 0 -19 7 -26 15 -7 8 -27 15 -45 15 -19 0
-35 4 -37 8 -5 14 -89 53 -99 46 -5 -3 -21 1 -34 10 -13 9 -31 16 -38 16 -8 0
-20 7 -27 15 -7 8 -27 15 -45 15 -18 0 -38 7 -45 15 -7 8 -23 15 -37 15 -13 0
-35 7 -48 16 -13 9 -29 13 -35 9 -6 -4 -22 0 -35 9 -13 9 -37 16 -53 16 -16 0
-35 7 -42 15 -7 9 -30 15 -54 15 -22 0 -50 7 -60 15 -11 8 -32 15 -46 15 -14
0 -31 5 -38 12 -7 7 -28 11 -48 10 -20 -2 -47 4 -60 13 -14 9 -46 15 -77 15
-36 0 -59 5 -67 15 -8 10 -31 15 -69 15 -32 1 -64 7 -75 15 -13 10 -35 12 -80
8 -49 -4 -65 -2 -78 11 -13 12 -37 16 -110 16 -68 0 -100 4 -114 15 -15 12
-59 15 -233 14 -139 0 -217 3 -224 10 -15 15 -77 13 -102 -2z"/>
<path d="M14440 16275 c-8 -10 -31 -15 -69 -15 -31 -1 -67 -7 -81 -15 -14 -8
-39 -14 -56 -15 -17 0 -37 -7 -44 -15 -7 -8 -27 -15 -45 -15 -18 0 -38 -7 -46
-16 -7 -9 -21 -13 -35 -10 -13 4 -27 0 -34 -9 -7 -8 -21 -15 -31 -15 -10 0
-20 -4 -24 -9 -3 -6 -31 -22 -63 -37 -31 -15 -66 -37 -77 -50 -11 -13 -28 -24
-36 -24 -9 0 -24 -10 -35 -21 -10 -12 -41 -36 -69 -54 -59 -38 -245 -226 -245
-247 0 -8 -14 -27 -31 -44 -17 -16 -42 -54 -57 -84 -14 -30 -36 -66 -48 -80
-12 -14 -24 -36 -27 -50 -9 -40 -31 -96 -46 -114 -8 -9 -11 -19 -8 -23 3 -3 0
-18 -8 -34 -8 -15 -15 -41 -15 -57 0 -16 -7 -35 -15 -42 -9 -8 -15 -30 -15
-60 0 -26 -7 -61 -16 -79 -14 -28 -16 -64 -12 -257 3 -152 9 -229 16 -236 7
-7 12 -29 12 -50 0 -22 8 -53 17 -71 9 -18 16 -44 15 -58 -1 -15 5 -32 13 -39
8 -7 15 -27 15 -46 0 -18 4 -35 9 -39 6 -3 21 -30 35 -60 14 -29 31 -57 36
-60 6 -3 10 -14 10 -24 0 -10 11 -28 25 -41 14 -13 25 -29 25 -36 0 -7 14 -29
30 -47 17 -19 30 -40 30 -46 0 -6 14 -23 30 -38 17 -15 29 -32 28 -39 -3 -13
-153 -168 -760 -783 -197 -200 -358 -371 -358 -380 -1 -25 388 -401 415 -401
15 0 67 47 171 153 499 514 1021 1037 1035 1037 9 0 41 -13 72 -30 31 -16 67
-30 79 -30 13 0 31 -7 41 -15 11 -7 25 -11 33 -8 8 3 25 -2 39 -11 15 -10 46
-16 78 -16 37 0 59 -5 67 -15 18 -22 493 -21 511 1 7 9 32 14 69 14 39 0 62 5
70 15 7 8 25 15 39 15 15 0 36 7 47 15 10 8 31 15 45 15 15 0 32 7 39 15 7 8
20 15 30 15 10 0 23 7 30 15 7 8 21 15 31 15 10 0 20 4 24 9 7 12 64 41 80 41
6 0 24 14 40 30 16 17 36 30 45 30 9 0 29 14 45 30 16 17 36 30 44 30 20 0
261 250 261 270 0 8 18 32 40 54 22 21 40 46 40 56 0 10 7 23 15 30 8 7 15 21
15 31 0 11 4 19 8 19 9 0 42 69 42 87 0 6 7 16 15 23 8 7 15 20 15 30 0 10 7
23 15 30 8 7 15 27 15 45 0 18 7 38 15 45 10 9 14 22 10 39 -3 14 2 39 10 55
8 16 15 54 15 86 0 39 5 62 15 70 21 18 21 343 0 380 -8 14 -14 52 -15 86 0
42 -5 65 -15 74 -9 7 -15 29 -15 54 0 23 -5 47 -12 54 -12 12 -36 71 -45 112
-3 14 -9 27 -13 30 -4 3 -25 43 -47 90 -23 47 -50 94 -62 104 -12 11 -21 25
-21 33 0 8 -20 33 -44 56 -24 23 -50 56 -59 72 -19 37 -150 165 -169 165 -8 0
-32 18 -53 40 -21 22 -46 40 -55 40 -9 0 -27 11 -40 25 -13 14 -31 25 -40 25
-9 0 -29 14 -45 30 -16 17 -36 30 -46 30 -9 0 -22 7 -29 15 -7 8 -27 15 -45
15 -18 0 -38 7 -45 15 -7 8 -16 13 -20 10 -4 -3 -13 2 -20 10 -7 8 -27 15 -45
15 -18 0 -38 7 -45 15 -8 9 -30 15 -60 15 -32 0 -52 5 -61 16 -11 13 -26 15
-70 11 -39 -3 -66 0 -84 9 -41 21 -367 20 -385 -1z"/>
<path d="M5082 15793 c-121 -3 -157 -7 -169 -19 -9 -8 -30 -14 -52 -13 -20 1
-49 -5 -65 -14 -16 -8 -34 -13 -41 -11 -6 3 -18 -2 -25 -11 -7 -8 -20 -15 -30
-15 -10 0 -23 -7 -30 -15 -7 -8 -20 -15 -29 -15 -10 0 -30 -13 -46 -30 -16
-16 -35 -30 -42 -30 -16 0 -233 -220 -233 -235 0 -6 -24 -59 -54 -117 -34 -66
-54 -119 -54 -138 1 -17 -4 -36 -10 -42 -8 -8 -12 -73 -12 -209 0 -162 3 -199
15 -209 9 -7 15 -29 15 -55 0 -25 6 -48 15 -55 8 -6 14 -15 13 -18 -4 -12 35
-92 44 -92 4 0 8 -8 8 -18 0 -10 14 -31 30 -47 17 -16 30 -36 30 -45 0 -20
160 -180 181 -180 9 0 26 -11 39 -25 13 -14 29 -25 36 -25 7 0 30 -12 51 -26
21 -14 50 -28 65 -31 15 -3 33 -12 39 -19 6 -8 27 -14 45 -14 19 0 34 -4 34
-10 0 -5 22 -10 49 -10 31 0 53 -5 61 -15 10 -12 39 -15 145 -15 106 0 135 3
145 15 8 10 31 15 70 15 39 0 62 5 70 15 7 8 27 15 46 15 18 0 35 4 39 9 3 5
32 23 64 39 l58 29 144 -140 c135 -131 489 -479 1030 -1014 144 -142 243 -233
255 -233 19 0 264 236 264 254 0 5 -31 39 -69 75 -294 283 -1171 1156 -1171
1167 0 7 -34 46 -75 85 -77 74 -90 104 -60 129 8 7 15 20 15 30 0 10 7 23 15
30 8 7 15 20 15 30 0 10 7 23 15 30 8 7 15 27 15 46 0 18 5 36 10 39 6 3 10
26 10 49 0 27 6 48 15 56 12 10 15 39 15 145 0 106 -3 135 -15 145 -10 8 -15
31 -15 71 0 38 -5 63 -15 73 -8 8 -15 21 -15 29 0 8 -7 20 -15 27 -8 7 -15 27
-15 44 0 22 -8 40 -25 56 -14 13 -25 30 -25 37 0 8 -13 27 -30 43 -16 16 -30
35 -30 42 0 19 -132 148 -151 148 -8 0 -28 14 -44 30 -16 17 -36 30 -45 30 -9
0 -27 11 -40 25 -13 14 -34 25 -47 25 -13 0 -48 14 -78 30 -34 19 -68 30 -93
30 -23 0 -45 6 -52 15 -7 8 -22 14 -34 13 -11 -1 -90 -4 -174 -5z"/>
<path d="M9896 13443 c-163 -2 -254 -7 -263 -14 -7 -7 -13 -32 -13 -59 0 -28
-5 -50 -12 -52 -7 -3 -11 -26 -9 -64 1 -45 -2 -64 -14 -74 -10 -8 -15 -30 -15
-70 0 -39 -5 -62 -15 -70 -9 -7 -15 -29 -15 -54 0 -37 -4 -43 -35 -60 -23 -12
-52 -19 -84 -17 -33 1 -52 -4 -61 -14 -8 -9 -29 -15 -56 -15 -24 0 -49 -6 -58
-15 -8 -9 -33 -15 -59 -15 -27 0 -49 -6 -57 -15 -21 -25 -86 -19 -120 12 -17
14 -30 34 -30 43 0 9 -20 36 -45 60 -24 24 -42 47 -39 52 3 4 -21 36 -54 71
-32 34 -62 70 -65 80 -4 9 -17 22 -29 27 -13 6 -31 16 -41 22 -15 11 -20 10
-28 -4 -6 -10 -18 -18 -28 -18 -10 0 -26 -9 -36 -20 -10 -11 -42 -31 -71 -45
-29 -14 -56 -30 -59 -35 -3 -6 -14 -10 -24 -10 -9 0 -30 -13 -46 -30 -16 -16
-36 -30 -46 -30 -9 0 -22 -7 -29 -15 -7 -8 -21 -15 -31 -15 -10 0 -21 -4 -24
-10 -3 -5 -30 -21 -58 -34 -29 -13 -59 -31 -66 -40 -7 -8 -38 -27 -68 -41 -83
-40 -93 -51 -93 -111 0 -34 5 -56 15 -64 8 -7 15 -25 15 -41 0 -29 12 -58 38
-90 7 -9 14 -29 16 -45 2 -16 16 -51 30 -78 18 -33 26 -64 26 -97 l0 -48 -167
-170 c-173 -178 -192 -190 -236 -157 -9 7 -27 11 -40 9 -14 -3 -29 2 -36 11
-8 9 -21 16 -31 16 -10 0 -23 7 -30 15 -7 8 -27 15 -45 15 -18 0 -38 7 -45 15
-7 8 -19 15 -27 15 -8 0 -21 7 -29 15 -9 9 -25 13 -38 9 -14 -3 -27 1 -35 10
-23 27 -56 18 -99 -26 -23 -23 -42 -48 -42 -55 0 -8 -11 -26 -25 -41 -14 -15
-25 -34 -25 -43 0 -9 -7 -22 -15 -29 -8 -7 -15 -18 -15 -24 0 -7 -11 -23 -25
-36 -14 -13 -25 -31 -25 -41 0 -9 -7 -22 -15 -29 -8 -7 -15 -20 -15 -30 0 -9
-9 -25 -21 -36 -21 -19 -89 -148 -89 -170 0 -6 -7 -17 -15 -24 -8 -7 -15 -20
-15 -30 0 -10 -7 -23 -15 -30 -8 -7 -15 -26 -15 -43 0 -27 18 -49 127 -154 69
-68 133 -123 142 -123 20 0 101 -82 101 -102 0 -9 -7 -21 -15 -28 -8 -7 -15
-25 -15 -41 0 -15 -4 -31 -10 -34 -5 -3 -10 -28 -10 -54 0 -31 -5 -53 -15 -61
-9 -7 -15 -30 -15 -54 0 -22 -7 -50 -15 -60 -8 -11 -15 -39 -15 -62 0 -25 -6
-47 -15 -54 -8 -7 -15 -19 -15 -26 0 -11 -17 -14 -69 -14 -49 0 -72 -4 -81
-15 -9 -11 -33 -15 -85 -15 -52 0 -76 -4 -85 -15 -8 -10 -31 -15 -69 -15 -50
0 -61 -4 -86 -29 l-28 -30 5 -394 c3 -217 9 -400 12 -406 4 -6 38 -11 79 -11
47 -1 79 -6 91 -15 13 -10 44 -15 92 -15 44 0 74 -4 76 -11 2 -6 19 -13 38
-15 19 -2 39 -9 44 -14 6 -6 17 -10 26 -10 9 0 30 -15 48 -33 28 -29 32 -40
32 -89 0 -37 5 -60 15 -68 8 -7 15 -25 15 -40 0 -15 7 -33 15 -40 9 -8 15 -30
15 -60 0 -30 6 -52 15 -60 8 -7 15 -24 15 -38 0 -14 7 -33 16 -43 17 -18 12
-39 -9 -39 -7 0 -42 -30 -77 -66 -36 -36 -78 -71 -95 -78 -16 -7 -49 -34 -73
-60 -23 -25 -48 -46 -54 -46 -7 0 -25 -12 -40 -27 -37 -35 -39 -89 -4 -122 13
-13 27 -34 30 -47 4 -13 11 -24 16 -24 6 0 10 -8 10 -19 0 -10 7 -24 15 -31 8
-7 15 -20 15 -29 0 -10 13 -30 30 -46 17 -16 30 -33 30 -39 0 -17 34 -86 42
-86 4 0 8 -8 8 -18 0 -10 13 -31 30 -47 16 -16 30 -36 30 -46 0 -9 7 -22 15
-29 8 -7 15 -20 15 -29 0 -9 5 -22 11 -28 6 -6 23 -35 38 -65 26 -51 28 -53
73 -56 31 -2 50 2 61 13 9 8 29 15 45 15 16 0 35 7 42 15 7 8 25 15 41 15 15
0 34 7 43 15 8 8 21 15 29 15 8 0 20 7 27 15 7 8 27 15 45 15 18 0 38 7 45 15
7 8 24 15 39 15 15 0 32 5 39 12 9 9 19 4 42 -20 16 -18 30 -38 30 -45 0 -18
102 -117 121 -117 17 0 189 -170 189 -186 0 -7 -7 -17 -15 -24 -8 -7 -15 -22
-15 -35 0 -12 -12 -44 -27 -71 -14 -27 -25 -61 -24 -75 0 -15 -6 -32 -14 -39
-8 -7 -15 -27 -15 -45 0 -18 -7 -38 -15 -45 -8 -7 -15 -19 -15 -27 0 -8 -7
-21 -15 -29 -30 -30 -18 -65 42 -126 32 -32 65 -58 74 -58 9 0 22 -7 29 -15 7
-8 18 -15 25 -15 18 0 131 -59 145 -75 14 -17 106 -65 112 -59 3 2 17 -10 33
-26 16 -17 36 -30 46 -30 9 0 22 -7 29 -15 7 -8 18 -15 25 -15 6 0 33 -11 59
-25 78 -42 102 -36 179 44 37 38 67 75 67 82 0 8 30 43 66 80 36 36 66 73 68
82 7 48 87 77 116 42 8 -9 30 -15 60 -15 30 0 52 -6 60 -15 8 -10 30 -15 60
-15 27 0 50 -5 52 -11 2 -6 19 -13 38 -15 19 -2 39 -9 44 -14 6 -6 32 -10 58
-10 40 0 48 -3 48 -19 0 -10 7 -24 15 -31 10 -8 15 -31 15 -70 0 -39 5 -62 15
-70 12 -10 15 -36 15 -115 0 -79 3 -105 15 -115 9 -8 15 -29 15 -56 0 -23 5
-46 10 -49 19 -12 833 -5 847 7 8 7 13 35 13 82 0 42 5 77 12 84 6 6 11 34 9
64 -1 35 3 60 13 73 9 12 15 42 16 76 0 38 5 61 15 69 8 7 15 20 15 30 0 27
33 50 74 50 20 0 48 7 61 16 14 9 31 14 39 11 8 -3 22 1 33 8 10 8 37 15 59
15 24 0 47 6 54 15 7 8 25 15 39 15 15 0 36 7 47 15 22 17 94 20 94 5 0 -6 20
-33 45 -59 25 -26 45 -55 45 -63 0 -8 25 -39 55 -67 30 -29 55 -58 55 -65 0
-19 112 -126 131 -126 9 0 22 7 29 15 7 8 20 15 30 15 10 0 23 7 30 15 7 8 20
15 30 15 10 0 23 7 30 15 7 8 19 15 27 15 8 0 24 11 37 25 13 14 30 25 38 25
9 0 21 7 28 15 7 8 20 15 30 15 10 0 23 7 30 15 7 8 18 15 26 15 7 0 28 13 46
28 18 16 54 39 80 51 25 12 52 28 58 36 7 8 37 26 67 40 78 38 93 53 93 98 0
21 -7 45 -15 53 -8 9 -15 28 -15 43 0 15 -5 32 -10 37 -6 6 -12 26 -15 45 -2
18 -9 35 -15 37 -5 2 -10 18 -10 37 0 18 -7 38 -15 45 -8 7 -15 20 -15 30 0
10 -7 23 -15 30 -8 7 -15 25 -15 40 0 15 -7 33 -15 40 -8 7 -15 18 -15 24 0 6
76 89 169 184 144 148 172 172 198 172 17 0 36 -6 42 -14 6 -7 21 -11 34 -9
14 3 29 -2 36 -11 8 -9 21 -16 31 -16 10 0 23 -7 30 -15 7 -8 27 -15 45 -15
18 0 38 -7 45 -15 7 -8 20 -15 29 -15 9 0 24 -7 34 -14 10 -8 26 -12 36 -9 10
2 25 -3 34 -12 23 -23 116 -17 128 8 5 9 14 25 19 35 6 9 13 24 16 32 20 50
36 78 59 104 14 16 25 37 25 48 0 10 4 18 10 18 5 0 12 11 16 24 3 13 17 34
30 47 13 12 24 30 24 40 0 9 7 22 15 29 8 7 15 20 15 30 0 10 7 23 15 30 8 7
15 20 15 29 0 10 11 28 25 41 14 13 25 31 25 41 0 9 7 22 15 29 8 7 15 20 15
30 0 10 7 23 15 30 8 7 15 27 15 45 0 26 -9 41 -45 74 -25 23 -49 40 -54 37
-4 -3 -39 26 -76 64 -38 39 -76 70 -85 70 -8 0 -43 28 -77 61 -55 54 -63 66
-63 99 0 21 7 43 15 50 8 7 15 27 15 45 0 18 7 38 15 45 8 7 15 25 15 41 0 15
5 31 10 34 6 3 10 28 10 54 0 30 6 53 14 61 8 6 16 33 18 58 3 47 3 47 39 48
20 0 53 9 74 18 26 13 52 17 86 14 30 -3 56 0 67 8 10 6 58 14 107 16 55 3 90
9 93 16 2 7 18 12 37 12 18 0 38 6 44 14 8 10 11 126 11 407 l-1 394 -26 27
c-21 22 -36 28 -69 28 -25 0 -47 6 -54 15 -9 11 -33 15 -90 15 -57 0 -81 4
-90 15 -8 10 -29 14 -66 14 -30 -1 -60 3 -67 9 -7 6 -33 12 -57 14 l-45 3 -3
62 c-2 38 -8 66 -17 73 -9 7 -15 30 -15 55 0 26 -6 48 -15 55 -8 7 -15 27 -15
45 0 19 -5 35 -12 37 -6 2 -13 19 -14 37 -1 18 -7 38 -13 44 -30 30 15 127 59
127 9 0 34 18 55 40 21 22 45 40 52 40 7 0 28 14 46 30 19 17 40 30 46 30 6 0
36 25 66 56 50 50 55 60 55 98 0 27 -6 48 -15 56 -8 7 -15 20 -15 30 0 10 -7
23 -15 30 -8 7 -15 20 -15 29 0 10 -12 28 -26 42 -14 13 -43 60 -64 105 -22
44 -46 86 -54 93 -9 7 -27 37 -41 66 -14 30 -30 57 -35 60 -6 3 -10 14 -10 24
0 10 -7 24 -15 31 -8 7 -15 20 -15 29 0 10 -11 28 -25 41 -14 13 -25 29 -25
36 0 38 -75 60 -100 29 -7 -8 -27 -15 -45 -15 -18 0 -38 -7 -45 -15 -7 -8 -25
-15 -40 -15 -15 0 -33 -7 -40 -15 -7 -8 -27 -15 -45 -15 -18 0 -38 -7 -45 -15
-7 -8 -26 -15 -42 -15 -16 0 -36 -7 -44 -15 -9 -8 -28 -15 -43 -15 -15 0 -31
-4 -37 -9 -5 -6 -74 54 -181 158 -196 190 -195 187 -143 284 17 31 30 65 30
75 0 11 11 40 25 66 14 26 25 60 25 76 0 16 4 31 9 34 16 10 51 86 51 112 0
28 -73 104 -100 104 -10 0 -23 7 -30 15 -7 8 -17 15 -22 15 -6 0 -26 14 -45
30 -19 17 -38 28 -42 25 -5 -2 -14 2 -21 10 -7 8 -20 15 -30 15 -9 0 -25 9
-36 21 -19 21 -148 89 -170 89 -6 0 -17 7 -24 15 -7 8 -20 15 -29 15 -10 0
-30 14 -46 30 -16 17 -37 30 -46 30 -10 0 -21 5 -24 10 -3 6 -23 10 -44 10
-39 0 -81 -31 -81 -61 0 -8 -41 -55 -91 -104 -50 -50 -96 -102 -103 -116 -6
-14 -28 -45 -48 -68 -28 -30 -46 -41 -67 -41 -17 0 -33 5 -36 10 -3 6 -21 10
-39 10 -19 0 -39 7 -46 15 -7 8 -26 15 -42 15 -16 0 -36 7 -44 15 -9 9 -34 15
-58 15 -27 0 -48 6 -56 16 -11 12 -25 14 -66 8 -51 -6 -54 -5 -63 19 -5 14
-15 28 -20 32 -7 3 -11 43 -11 94 0 67 -4 92 -15 101 -11 9 -15 34 -15 100 0
66 -4 91 -15 100 -8 7 -15 24 -15 39 0 48 -11 51 -184 49 -89 -2 -273 -4 -410
-5z m394 -1048 c9 -11 34 -15 100 -15 65 0 91 -4 100 -15 9 -10 24 -13 56 -8
31 4 50 1 68 -11 14 -9 45 -16 69 -16 27 0 49 -6 57 -15 7 -8 23 -15 35 -15
12 0 47 -13 77 -29 31 -17 59 -27 62 -23 4 3 21 -1 39 -10 18 -9 39 -19 47
-22 8 -3 22 -10 30 -15 8 -5 22 -12 30 -15 8 -3 22 -10 30 -15 8 -5 22 -12 30
-15 8 -4 29 -15 45 -25 17 -11 37 -20 46 -20 9 -1 22 -8 29 -16 7 -8 19 -15
27 -15 9 0 31 -13 50 -30 18 -16 39 -30 46 -30 7 0 31 -18 52 -40 21 -22 46
-40 55 -40 8 0 47 -31 85 -70 38 -38 76 -70 85 -70 19 0 160 -140 160 -158 0
-7 32 -44 70 -81 39 -37 70 -74 70 -82 0 -8 14 -28 30 -44 17 -16 30 -36 30
-45 0 -9 14 -29 30 -45 17 -16 30 -35 30 -42 0 -8 11 -24 25 -37 14 -13 25
-30 25 -38 0 -9 7 -21 15 -28 8 -7 15 -21 15 -31 0 -10 4 -20 9 -24 6 -3 21
-30 35 -60 14 -29 31 -57 36 -60 6 -3 10 -14 10 -24 0 -10 7 -24 15 -31 8 -7
15 -27 15 -45 0 -18 7 -38 15 -45 8 -7 15 -25 15 -41 0 -15 5 -31 10 -34 6 -3
10 -19 10 -34 0 -15 7 -36 15 -47 8 -10 15 -31 15 -45 0 -15 7 -32 15 -39 10
-8 15 -31 15 -70 0 -39 5 -62 15 -70 11 -9 15 -32 15 -83 0 -48 5 -76 15 -87
12 -13 14 -64 15 -279 1 -178 -2 -267 -9 -274 -6 -6 -11 -43 -11 -83 0 -51 -4
-75 -15 -84 -9 -8 -15 -30 -15 -60 0 -30 -6 -52 -15 -60 -10 -8 -15 -30 -15
-60 0 -29 -5 -50 -12 -52 -7 -3 -11 -18 -10 -35 1 -17 -4 -36 -13 -43 -8 -7
-15 -27 -15 -45 0 -18 -7 -38 -15 -45 -8 -7 -15 -20 -15 -30 0 -10 -7 -23 -15
-30 -8 -7 -15 -20 -15 -30 0 -10 -7 -23 -15 -30 -9 -8 -13 -21 -9 -32 4 -13
-2 -29 -19 -46 -13 -15 -43 -66 -66 -113 -23 -48 -51 -95 -62 -104 -10 -10
-19 -26 -19 -35 0 -9 -13 -29 -30 -45 -16 -16 -30 -36 -30 -45 0 -8 -25 -40
-55 -70 -30 -30 -55 -61 -55 -70 0 -18 -249 -270 -268 -270 -7 0 -37 -25 -66
-55 -29 -30 -57 -55 -64 -55 -6 0 -27 -13 -45 -30 -19 -16 -40 -30 -45 -30 -6
0 -26 -13 -44 -28 -18 -16 -40 -32 -48 -35 -8 -4 -22 -11 -30 -16 -8 -5 -22
-12 -30 -15 -8 -3 -22 -10 -30 -15 -8 -5 -45 -23 -82 -41 -37 -17 -70 -35 -73
-40 -4 -6 -14 -10 -24 -10 -10 0 -24 -7 -31 -15 -7 -8 -27 -15 -45 -15 -18 0
-38 -7 -45 -15 -7 -8 -18 -15 -25 -15 -7 0 -18 -7 -25 -15 -8 -9 -30 -15 -60
-15 -30 0 -52 -6 -60 -15 -7 -8 -24 -15 -39 -15 -14 0 -35 -7 -45 -15 -11 -9
-42 -15 -70 -15 -29 0 -59 -7 -70 -15 -13 -10 -43 -15 -82 -15 -35 0 -74 -6
-90 -15 -43 -22 -526 -22 -544 0 -9 11 -32 15 -82 15 -46 0 -77 5 -93 16 -14
9 -32 13 -45 9 -11 -4 -34 1 -52 9 -17 9 -48 16 -68 16 -21 0 -43 7 -50 15 -7
8 -27 15 -45 15 -18 0 -38 7 -45 15 -7 8 -20 15 -29 15 -9 0 -24 7 -34 15 -11
7 -25 11 -33 8 -8 -3 -25 2 -39 11 -13 9 -31 16 -38 16 -8 0 -20 7 -27 15 -7
8 -21 15 -30 15 -10 0 -20 4 -22 8 -4 11 -145 82 -151 76 -2 -2 -10 2 -17 11
-7 8 -20 15 -29 15 -10 0 -30 14 -46 30 -16 17 -36 30 -45 30 -9 0 -27 11 -40
25 -13 14 -31 25 -40 25 -9 0 -36 20 -60 45 -24 25 -51 45 -59 45 -21 0 -301
280 -301 300 0 9 -25 38 -55 65 -30 26 -55 56 -55 65 0 9 -14 29 -30 45 -16
16 -30 36 -30 45 0 9 -11 27 -24 39 -13 13 -27 34 -30 47 -4 13 -11 24 -16 24
-6 0 -10 8 -10 19 0 10 -7 24 -15 31 -8 7 -15 20 -15 30 0 10 -7 23 -15 30 -8
7 -15 21 -15 31 0 10 -4 20 -9 23 -13 9 -81 145 -81 163 0 22 -32 93 -42 93
-4 0 -8 15 -8 34 0 18 -7 39 -15 46 -9 7 -15 29 -15 55 0 26 -6 48 -15 55 -9
8 -15 30 -15 60 0 30 -6 52 -15 60 -11 9 -15 33 -15 85 0 52 -4 76 -15 85 -13
11 -15 55 -15 289 0 196 3 280 12 289 6 6 10 39 9 80 -1 52 2 72 14 82 10 8
15 29 15 60 0 30 6 52 15 60 10 8 15 30 15 60 0 27 5 50 11 52 6 2 13 19 15
38 2 19 9 39 14 44 6 6 10 24 10 42 0 17 7 37 15 44 8 7 15 20 15 30 0 10 7
23 15 30 8 7 15 20 15 30 0 10 7 23 15 30 9 7 14 19 11 25 -2 7 2 25 10 40 8
15 14 33 14 40 0 6 10 20 21 31 12 10 34 46 50 80 16 33 38 69 49 79 11 10 20
26 20 35 0 9 14 29 30 45 17 16 30 36 30 45 0 9 18 34 40 55 22 21 40 46 40
54 0 19 279 301 298 301 7 0 39 27 72 60 33 33 66 60 73 60 7 0 24 11 37 25
13 14 29 25 36 25 7 0 28 13 46 28 18 16 40 32 48 35 8 4 22 11 30 16 8 5 22
12 30 15 8 3 22 10 30 15 8 5 45 23 82 41 37 17 70 35 73 40 4 6 14 10 24 10
10 0 24 7 31 15 7 8 27 15 45 15 18 0 38 7 45 15 7 8 25 15 40 15 15 0 33 7
40 15 7 8 27 15 45 15 18 0 38 7 45 15 7 9 29 15 55 15 26 0 48 6 55 15 8 10
31 15 70 15 39 0 62 5 70 15 9 11 34 15 100 15 66 0 91 4 100 15 10 12 48 15
220 15 172 0 210 -3 220 -15z"/>
<path d="M10054 12123 c-119 -3 -155 -7 -164 -18 -9 -11 -36 -15 -109 -15 -68
-1 -102 -5 -115 -15 -12 -9 -42 -15 -77 -15 -32 0 -59 -5 -61 -10 -2 -6 -18
-12 -37 -15 -19 -2 -39 -9 -44 -14 -6 -6 -30 -11 -53 -11 -25 0 -47 -6 -54
-15 -7 -8 -20 -15 -30 -15 -10 0 -23 -7 -30 -15 -7 -8 -25 -15 -41 -15 -15 0
-34 -7 -43 -15 -8 -8 -21 -15 -29 -15 -8 0 -20 -7 -27 -15 -7 -8 -20 -15 -30
-15 -10 0 -23 -7 -30 -15 -7 -8 -18 -15 -24 -15 -23 0 -91 -38 -106 -59 -8
-12 -22 -21 -30 -21 -9 0 -29 -13 -45 -30 -16 -16 -36 -30 -45 -30 -8 0 -40
-25 -70 -55 -30 -30 -61 -55 -68 -55 -17 0 -202 -188 -202 -205 0 -7 -27 -42
-60 -77 -33 -34 -60 -69 -60 -76 0 -7 -11 -25 -25 -40 -14 -15 -25 -33 -25
-40 0 -8 -13 -27 -30 -44 -16 -16 -30 -38 -30 -49 0 -10 -4 -19 -10 -19 -5 0
-10 -8 -10 -19 0 -10 -7 -24 -15 -31 -8 -7 -15 -20 -15 -30 0 -10 -7 -23 -15
-30 -8 -7 -15 -18 -15 -25 0 -6 -11 -33 -25 -59 -14 -26 -25 -60 -25 -75 0
-16 -7 -34 -15 -41 -8 -7 -15 -20 -15 -30 0 -10 -7 -23 -15 -30 -9 -7 -15 -29
-15 -52 0 -21 -6 -49 -14 -61 -8 -12 -14 -39 -14 -60 0 -22 -5 -44 -11 -50 -6
-6 -11 -43 -11 -83 0 -51 -4 -75 -15 -84 -13 -10 -15 -53 -15 -270 0 -217 2
-260 15 -270 11 -9 15 -33 15 -85 0 -52 4 -76 15 -85 9 -7 15 -29 15 -55 0
-26 6 -48 15 -55 8 -7 15 -27 15 -45 0 -18 7 -38 15 -45 8 -7 15 -25 15 -40 0
-15 7 -33 15 -40 8 -7 15 -27 15 -46 0 -18 4 -36 10 -39 5 -3 17 -23 26 -43 8
-20 20 -44 25 -52 5 -8 12 -22 15 -30 3 -8 9 -22 14 -30 5 -8 21 -40 36 -70
15 -30 37 -63 50 -73 13 -10 24 -26 24 -36 0 -10 11 -28 25 -41 14 -13 25 -30
25 -38 0 -7 27 -42 60 -76 33 -35 60 -68 60 -75 0 -17 222 -231 240 -231 9 0
34 -18 55 -40 21 -22 46 -40 55 -40 9 0 29 -13 45 -30 16 -16 36 -30 45 -30 9
0 27 -11 40 -25 13 -14 31 -25 41 -25 9 0 22 -7 29 -15 7 -8 21 -15 31 -15 11
0 19 -4 19 -8 0 -9 80 -48 92 -44 3 1 12 -5 18 -13 7 -8 27 -15 45 -15 18 0
38 -7 45 -15 7 -8 20 -15 30 -15 10 0 23 -7 30 -15 7 -8 28 -15 46 -15 19 0
34 -4 34 -10 0 -5 15 -10 34 -10 18 0 39 -7 46 -15 9 -10 32 -15 75 -15 43 0
66 -5 75 -15 8 -10 31 -15 69 -15 31 0 62 -5 68 -11 19 -19 460 -12 487 7 14
9 47 14 102 14 60 0 85 4 94 15 8 9 30 15 57 15 27 0 51 6 60 15 9 9 30 15 52
14 20 -1 49 5 65 14 16 8 34 13 41 11 6 -3 18 2 25 11 7 8 20 15 30 15 10 0
23 7 30 15 7 8 25 15 41 15 15 0 34 7 43 15 8 8 21 15 29 15 8 0 20 7 27 15 7
8 20 15 30 15 10 0 23 7 30 15 7 8 20 15 29 15 10 0 28 11 41 25 13 14 29 25
36 25 7 0 26 14 42 30 17 17 37 30 44 30 8 0 27 14 43 30 16 17 36 30 46 30
21 0 399 385 399 407 0 9 11 26 25 39 14 13 25 29 25 36 0 7 14 28 30 47 17
18 30 41 30 50 0 9 9 22 20 29 19 12 60 85 60 108 0 6 7 17 15 24 8 7 15 20
15 30 0 10 7 23 15 30 8 7 15 27 15 45 0 18 7 38 15 45 8 7 15 21 15 31 0 10
5 21 10 24 6 3 10 19 10 34 0 16 7 34 15 41 9 8 15 30 15 60 0 30 6 52 15 60
10 8 15 30 15 61 0 27 5 49 10 49 6 0 10 41 10 104 0 80 3 106 15 116 12 10
15 44 15 190 0 146 -3 180 -15 190 -11 9 -15 34 -15 95 0 61 -4 86 -15 95 -10
8 -15 31 -15 71 0 38 -5 63 -15 73 -8 8 -15 28 -15 44 0 16 -7 35 -15 42 -8 7
-15 27 -15 45 0 18 -7 38 -15 45 -8 7 -15 22 -15 35 0 23 -58 148 -72 153 -4
2 -8 12 -8 22 0 9 -7 23 -15 30 -8 7 -15 20 -15 30 0 10 -7 23 -15 30 -8 7
-15 20 -15 30 0 10 -7 23 -15 30 -8 7 -15 20 -15 30 0 9 -11 26 -25 36 -14 10
-25 26 -25 34 0 9 -20 36 -45 60 -25 24 -45 52 -45 61 0 19 -334 349 -353 349
-7 0 -32 18 -56 40 -23 22 -48 40 -55 40 -7 0 -23 11 -36 25 -13 14 -31 25
-41 25 -9 0 -22 7 -29 15 -7 8 -20 15 -30 15 -9 0 -25 9 -36 21 -25 28 -152
89 -185 89 -14 0 -32 7 -39 15 -7 8 -20 15 -30 15 -10 0 -23 7 -30 15 -7 8
-24 15 -39 15 -15 0 -32 5 -39 12 -6 6 -31 11 -55 9 -30 -1 -48 3 -57 14 -7 9
-29 15 -54 15 -22 0 -50 7 -60 15 -14 11 -47 15 -115 15 -69 1 -102 5 -115 15
-11 8 -22 14 -25 13 -3 -1 -74 -4 -157 -5z m202 -481 c1 -45 7 -88 13 -96 6
-7 13 -28 15 -46 5 -40 19 -50 73 -50 23 0 45 -4 48 -10 3 -5 28 -10 54 -10
31 0 53 -5 61 -15 15 -18 71 -20 88 -3 7 7 12 19 12 28 0 8 32 46 70 84 54 54
73 67 82 58 7 -7 20 -12 29 -12 9 0 22 -7 29 -15 7 -8 20 -15 30 -15 9 0 25
-9 35 -20 10 -11 38 -29 64 -40 73 -34 75 -35 84 -69 5 -23 3 -41 -8 -63 -8
-17 -15 -37 -15 -43 0 -7 -7 -18 -15 -25 -10 -9 -15 -32 -15 -74 l0 -62 99
-97 c54 -53 101 -97 105 -97 3 0 32 14 63 30 31 17 66 30 78 30 12 0 28 7 35
15 17 20 64 19 82 -2 8 -10 38 -66 66 -124 29 -58 61 -114 72 -124 11 -10 20
-23 20 -30 0 -15 -50 -61 -76 -69 -11 -3 -41 -28 -67 -55 -40 -42 -47 -55 -47
-89 0 -23 6 -45 15 -52 8 -7 15 -24 15 -39 0 -15 5 -32 10 -37 6 -6 12 -31 14
-56 1 -31 9 -51 26 -68 21 -21 32 -24 88 -21 43 1 71 -2 86 -13 13 -8 36 -16
52 -18 l29 -3 3 -182 2 -183 -59 0 c-40 0 -63 -5 -71 -15 -8 -10 -31 -15 -69
-15 -31 0 -62 -5 -69 -12 -7 -7 -12 -31 -12 -54 0 -25 -6 -47 -15 -54 -8 -7
-15 -27 -15 -45 0 -18 -7 -38 -15 -45 -9 -7 -15 -29 -15 -54 0 -37 6 -47 58
-99 32 -31 64 -57 73 -57 8 0 28 -13 43 -28 24 -26 25 -30 11 -42 -8 -7 -15
-21 -15 -31 0 -10 -4 -21 -10 -24 -5 -3 -10 -14 -10 -24 0 -10 -13 -30 -30
-44 -16 -15 -30 -36 -30 -46 0 -10 -7 -24 -15 -31 -8 -7 -15 -21 -15 -31 0
-11 -4 -19 -10 -19 -5 0 -10 -9 -10 -19 0 -28 -18 -36 -39 -17 -10 9 -31 16
-48 16 -17 0 -36 7 -43 15 -7 8 -20 15 -30 15 -10 0 -23 7 -30 15 -7 9 -29 15
-54 15 -38 0 -47 -6 -138 -97 -99 -99 -114 -127 -83 -153 8 -7 15 -25 15 -40
0 -15 7 -33 15 -40 8 -7 15 -26 15 -43 0 -17 7 -39 17 -49 15 -17 15 -19 -2
-38 -10 -11 -24 -20 -31 -20 -7 0 -29 -14 -47 -30 -19 -16 -39 -30 -45 -30 -5
0 -15 -7 -22 -15 -7 -8 -20 -15 -30 -15 -10 0 -23 -7 -30 -15 -7 -8 -19 -15
-28 -15 -8 0 -24 -8 -34 -17 -18 -16 -21 -14 -68 32 -28 27 -50 56 -50 64 0
18 -69 91 -86 91 -7 0 -14 -7 -18 -15 -3 -9 -18 -15 -39 -15 -19 0 -40 -7 -47
-15 -7 -9 -29 -15 -55 -15 -26 0 -48 -6 -55 -15 -7 -8 -19 -15 -28 -15 -9 0
-26 -10 -39 -22 -18 -16 -23 -32 -23 -69 0 -29 -6 -51 -15 -59 -9 -8 -15 -30
-15 -56 l0 -44 -179 0 c-199 0 -193 -3 -185 73 3 22 -1 39 -11 47 -9 7 -15 29
-15 52 0 48 -15 78 -39 78 -10 0 -24 7 -31 15 -8 10 -30 15 -61 15 -26 0 -51
5 -54 10 -3 6 -26 10 -49 10 -27 0 -48 6 -56 15 -7 8 -17 15 -22 15 -14 0 -57
-53 -58 -70 0 -8 -27 -42 -60 -74 -58 -59 -59 -59 -84 -43 -14 10 -30 17 -35
17 -6 0 -24 13 -41 30 -17 16 -39 30 -50 30 -10 0 -20 5 -22 11 -2 5 -10 11
-19 12 -9 2 -31 15 -48 30 -18 15 -39 27 -47 27 -19 0 -18 10 11 64 14 26 25
60 25 75 0 16 7 34 15 41 8 7 15 27 15 46 0 29 -13 46 -97 128 l-98 96 -57 0
c-37 0 -62 -5 -72 -15 -8 -8 -21 -15 -29 -15 -8 0 -20 -7 -27 -15 -8 -9 -30
-15 -56 -15 -36 0 -44 3 -44 19 0 10 -7 24 -15 31 -8 7 -15 18 -15 25 0 22
-33 80 -57 98 -13 10 -23 27 -23 37 0 9 -7 23 -15 30 -25 21 -18 61 17 97 18
18 40 33 49 33 9 0 33 18 53 40 30 33 36 48 36 84 0 26 -6 48 -15 56 -8 7 -15
25 -15 41 0 15 -6 34 -14 42 -8 8 -16 36 -18 62 -2 30 -9 51 -18 55 -8 4 -29
14 -45 23 -17 8 -42 13 -57 10 -17 -3 -38 1 -51 10 -13 8 -37 17 -53 19 l-29
3 -3 164 c-3 197 -1 201 88 201 38 0 62 5 70 14 6 8 28 16 48 18 35 3 37 5 40
40 2 20 10 42 18 48 8 8 14 31 14 60 0 30 6 52 15 60 9 8 15 30 15 58 0 43 -4
48 -71 113 -39 38 -77 69 -85 69 -19 0 -18 54 1 70 8 7 15 19 15 27 0 8 11 25
25 39 14 14 25 33 25 43 0 10 7 24 15 31 8 7 15 18 15 24 0 6 14 26 30 44 32
35 69 42 90 17 7 -8 27 -15 45 -15 18 0 38 -7 45 -14 7 -10 27 -14 56 -13 43
2 50 7 140 97 90 91 94 97 94 139 0 43 -26 121 -41 121 -4 0 -10 18 -14 41 -5
31 -3 45 11 60 9 10 23 19 30 19 7 0 29 14 47 30 19 17 39 30 45 30 5 0 15 7
22 15 7 8 20 15 30 15 10 0 23 7 30 15 7 8 19 15 28 15 8 0 24 7 34 17 17 15
19 15 38 -2 11 -10 20 -24 20 -32 0 -8 32 -46 70 -85 66 -67 71 -70 88 -54 11
9 36 16 59 16 24 0 46 6 53 15 8 9 30 15 58 15 49 0 92 28 92 61 0 9 7 22 15
29 10 9 15 32 15 76 0 35 4 64 10 64 5 0 12 11 16 25 l6 25 182 -2 181 -3 1
-83z"/>
<path d="M4070 12595 c-7 -8 -18 -15 -26 -15 -17 0 -636 -624 -650 -656 -5
-13 -118 -135 -250 -270 -131 -135 -244 -257 -249 -270 -6 -13 -66 -79 -133
-147 -67 -68 -122 -130 -122 -138 0 -8 -43 -57 -95 -109 -52 -52 -95 -101 -95
-110 0 -8 -32 -48 -70 -87 -39 -40 -70 -78 -70 -85 0 -7 -32 -46 -70 -86 -39
-40 -70 -79 -70 -86 0 -7 -25 -39 -55 -70 -30 -31 -55 -61 -55 -67 0 -7 -20
-34 -45 -60 -25 -26 -45 -54 -45 -62 0 -7 -18 -32 -40 -56 -22 -23 -40 -48
-40 -55 0 -6 -18 -29 -40 -51 -21 -22 -39 -46 -40 -54 0 -8 -20 -36 -45 -62
-25 -26 -45 -54 -45 -62 0 -7 -11 -24 -25 -37 -14 -13 -25 -30 -25 -38 0 -8
-20 -37 -46 -64 -25 -26 -43 -52 -40 -57 3 -4 -8 -21 -24 -36 -17 -16 -30 -35
-30 -43 0 -8 -13 -30 -30 -49 -16 -18 -30 -40 -30 -47 0 -7 -11 -23 -25 -36
-14 -13 -25 -31 -25 -41 0 -9 -7 -22 -15 -29 -8 -7 -15 -19 -15 -27 0 -9 -13
-31 -30 -50 -16 -18 -30 -40 -30 -47 0 -7 -11 -23 -25 -36 -14 -13 -25 -31
-25 -41 0 -9 -7 -22 -15 -29 -8 -7 -15 -20 -15 -30 0 -10 -7 -23 -15 -30 -8
-7 -15 -18 -15 -24 0 -7 -8 -21 -18 -32 -20 -21 -112 -201 -112 -219 0 -6 -13
-24 -30 -40 -16 -16 -30 -36 -30 -46 0 -9 -7 -22 -15 -29 -8 -7 -15 -18 -15
-25 0 -6 -11 -33 -25 -59 -14 -26 -25 -53 -25 -60 0 -8 -7 -19 -15 -26 -8 -7
-15 -22 -15 -34 0 -12 -18 -57 -40 -100 -22 -43 -40 -84 -40 -91 0 -7 -7 -18
-15 -25 -8 -7 -15 -20 -15 -30 0 -10 -7 -23 -15 -30 -8 -7 -15 -28 -15 -46 0
-19 -4 -34 -8 -34 -12 0 -42 -73 -42 -102 0 -14 -7 -31 -15 -38 -8 -7 -15 -27
-15 -45 0 -18 -7 -38 -15 -45 -8 -7 -15 -27 -15 -45 0 -19 -6 -35 -12 -37 -7
-3 -11 -18 -10 -35 1 -17 -4 -36 -13 -43 -8 -7 -15 -27 -15 -45 0 -18 -7 -38
-15 -45 -8 -7 -15 -27 -15 -45 0 -18 -7 -38 -15 -45 -9 -7 -15 -29 -15 -54 0
-23 -5 -47 -12 -54 -6 -6 -11 -31 -9 -55 1 -30 -3 -48 -14 -57 -9 -8 -15 -29
-15 -55 0 -26 -6 -48 -15 -55 -10 -9 -15 -32 -15 -75 0 -40 -5 -67 -13 -74
-10 -8 -13 -30 -9 -86 3 -57 1 -80 -11 -98 -20 -31 -24 -149 -25 -770 -1 -304
2 -496 8 -507 6 -10 10 -70 10 -133 0 -90 3 -117 15 -127 11 -9 15 -34 15 -95
0 -61 4 -86 15 -95 11 -9 15 -33 15 -85 0 -52 4 -76 15 -85 9 -8 15 -30 15
-60 0 -30 6 -52 15 -60 10 -8 15 -31 15 -70 0 -39 5 -62 15 -70 10 -8 15 -27
13 -51 -1 -20 4 -44 10 -52 7 -8 14 -29 16 -48 2 -18 9 -35 15 -37 6 -2 11
-25 11 -52 0 -30 5 -52 15 -60 8 -7 15 -25 15 -40 0 -15 7 -33 15 -40 8 -7 15
-27 15 -45 0 -18 7 -38 15 -45 8 -7 15 -25 15 -41 0 -15 7 -34 15 -43 8 -8 15
-28 15 -44 0 -16 7 -35 15 -42 8 -7 15 -20 15 -30 0 -10 7 -23 15 -30 8 -7 15
-23 15 -36 0 -14 4 -32 9 -42 5 -9 12 -24 15 -32 4 -8 17 -35 31 -59 14 -24
25 -54 25 -66 0 -13 7 -28 15 -35 8 -7 15 -20 15 -30 0 -10 7 -23 15 -30 8 -7
15 -20 15 -30 0 -10 7 -23 15 -30 8 -7 15 -21 15 -31 0 -11 5 -19 10 -19 6 0
10 -8 10 -19 0 -10 7 -24 15 -31 8 -7 15 -21 15 -31 0 -10 4 -21 10 -24 5 -3
22 -33 37 -65 15 -33 31 -60 35 -60 4 0 8 -8 8 -18 0 -10 13 -31 30 -47 16
-16 30 -34 30 -40 0 -20 38 -90 59 -109 12 -11 21 -25 21 -31 0 -7 7 -18 15
-25 8 -7 15 -20 15 -29 0 -10 13 -30 30 -46 16 -16 30 -36 30 -45 0 -9 11 -27
25 -40 14 -13 25 -30 25 -38 0 -7 13 -27 30 -44 16 -16 30 -35 30 -42 0 -6 20
-32 45 -56 25 -24 45 -51 45 -60 0 -9 18 -34 40 -55 22 -21 40 -45 40 -53 0
-8 31 -46 70 -83 39 -38 70 -75 70 -82 0 -7 52 -64 115 -127 63 -63 115 -121
115 -129 0 -18 250 -261 270 -261 8 0 71 -56 140 -125 69 -69 132 -125 140
-125 9 0 40 -25 70 -55 30 -30 61 -55 70 -55 9 0 34 -18 55 -40 21 -22 46 -40
55 -40 9 0 36 -20 60 -45 24 -25 51 -45 60 -45 9 0 27 -11 40 -25 13 -14 31
-25 40 -25 9 0 36 -20 60 -45 24 -25 52 -45 61 -45 10 0 21 -4 24 -10 3 -5 14
-10 24 -10 10 0 30 -14 44 -30 15 -17 34 -30 43 -30 9 0 27 -12 40 -26 13 -14
32 -27 42 -29 27 -5 79 -34 93 -51 7 -8 46 -31 88 -50 42 -20 83 -40 91 -45 8
-5 22 -12 30 -15 8 -3 22 -10 30 -15 8 -5 22 -12 30 -15 8 -3 22 -10 30 -15 8
-5 22 -12 30 -15 8 -3 74 -35 145 -70 72 -36 142 -64 156 -64 15 0 32 -7 39
-15 7 -8 20 -15 30 -15 10 0 23 -7 30 -15 7 -8 20 -15 30 -15 10 0 23 -7 30
-15 7 -8 25 -15 41 -15 15 0 31 -4 34 -10 3 -5 21 -10 39 -10 19 0 39 -7 46
-15 7 -8 20 -15 30 -15 10 0 23 -7 30 -15 7 -8 27 -15 45 -15 18 0 38 -7 45
-15 7 -8 25 -15 41 -15 15 0 31 -4 34 -10 3 -5 21 -10 39 -10 19 0 39 -7 46
-15 8 -9 30 -15 60 -15 30 0 52 -6 60 -15 7 -8 24 -15 39 -15 15 0 32 -5 39
-12 6 -6 33 -13 58 -14 26 -2 52 -8 58 -14 5 -5 29 -10 52 -10 25 0 47 -6 54
-15 9 -10 32 -15 75 -15 43 0 66 -5 75 -15 8 -10 31 -15 69 -15 31 0 62 -5 69
-12 6 -6 39 -10 80 -9 52 1 72 -2 82 -14 9 -11 33 -15 99 -15 61 -1 92 -5 106
-16 15 -11 49 -15 145 -15 69 0 195 -3 280 -6 243 -9 1021 16 1041 33 11 10
44 14 111 14 73 0 99 4 108 15 9 11 33 15 85 15 52 0 76 4 85 15 8 10 31 15
70 15 39 0 62 5 70 15 8 9 30 15 60 15 30 0 52 6 60 15 7 9 29 15 55 15 26 0
48 6 55 15 7 9 29 15 55 15 26 0 48 6 55 15 8 9 30 15 60 15 30 0 52 6 60 15
7 8 23 15 37 15 13 0 35 7 48 16 14 9 31 14 39 11 8 -3 22 1 33 8 10 8 30 15
44 15 15 0 32 7 39 15 7 8 27 15 45 15 18 0 38 7 45 15 7 8 25 15 40 15 15 0
33 7 40 15 7 8 27 15 45 15 18 0 38 7 45 15 7 8 20 15 30 15 10 0 23 7 30 15
7 8 25 15 40 15 15 0 33 7 40 15 7 8 18 15 26 15 7 0 34 11 60 25 26 14 57 25
69 25 13 0 28 7 35 15 7 8 21 15 31 15 10 0 20 4 24 9 3 6 29 21 58 36 54 26
69 34 102 53 11 7 27 15 35 18 47 19 140 66 145 74 4 6 14 10 24 10 9 0 30 13
46 30 16 16 36 30 46 30 9 0 22 7 29 15 7 8 21 15 31 15 11 0 21 10 25 25 3
13 12 29 20 36 19 15 18 74 -1 93 -8 8 -15 20 -15 27 0 7 -12 26 -27 41 -23
24 -34 28 -84 28 -38 0 -63 -5 -73 -15 -8 -8 -21 -15 -28 -15 -8 0 -27 -13
-43 -30 -16 -16 -36 -30 -46 -30 -9 0 -22 -7 -29 -15 -7 -8 -15 -13 -19 -11
-3 2 -24 -7 -46 -20 -22 -13 -47 -26 -55 -30 -8 -3 -22 -10 -30 -15 -8 -5 -22
-12 -30 -15 -8 -3 -22 -9 -30 -14 -8 -5 -38 -21 -67 -35 -28 -14 -55 -30 -58
-35 -3 -6 -14 -10 -24 -10 -10 0 -24 -7 -31 -15 -7 -8 -25 -15 -40 -15 -28 0
-85 -24 -95 -41 -4 -5 -14 -9 -24 -9 -10 0 -24 -7 -31 -15 -7 -8 -23 -15 -36
-15 -24 0 -100 -35 -110 -51 -3 -5 -20 -9 -38 -9 -19 0 -39 -7 -46 -15 -7 -8
-26 -15 -42 -15 -16 0 -36 -7 -44 -15 -9 -8 -28 -15 -43 -15 -16 0 -34 -7 -41
-15 -7 -8 -27 -15 -45 -15 -19 0 -35 -5 -37 -11 -2 -5 -18 -11 -36 -11 -18 -1
-37 -7 -43 -15 -6 -7 -24 -13 -40 -13 -15 0 -34 -7 -43 -15 -8 -9 -33 -15 -59
-15 -27 0 -49 -6 -57 -15 -7 -9 -29 -15 -55 -15 -26 0 -48 -6 -55 -15 -8 -9
-29 -15 -56 -15 -24 0 -49 -6 -58 -15 -10 -10 -35 -15 -74 -15 -41 0 -63 -5
-72 -15 -9 -11 -33 -15 -85 -15 -52 0 -76 -4 -85 -15 -9 -11 -32 -15 -79 -15
-42 -1 -73 -6 -85 -15 -15 -11 -49 -15 -130 -15 -80 0 -114 -4 -125 -14 -13
-12 -102 -15 -529 -17 -383 -2 -515 0 -524 9 -8 8 -49 12 -114 12 -78 0 -104
3 -114 15 -9 11 -34 15 -99 15 -55 0 -91 4 -99 12 -8 8 -37 11 -80 10 -52 -3
-72 0 -82 12 -8 11 -29 16 -60 16 -30 0 -52 6 -60 15 -8 10 -31 15 -70 15 -38
0 -62 5 -70 15 -7 9 -29 14 -57 13 -24 0 -50 5 -56 11 -6 6 -23 11 -38 11 -15
0 -32 7 -39 15 -8 9 -30 15 -60 15 -30 0 -52 6 -60 15 -7 8 -27 15 -45 15 -18
0 -38 7 -45 15 -7 9 -19 14 -25 11 -7 -2 -25 2 -40 10 -15 8 -40 14 -55 14
-15 0 -33 7 -40 15 -7 8 -27 15 -45 15 -18 0 -38 7 -45 15 -7 8 -20 15 -30 15
-10 0 -23 7 -30 15 -7 9 -19 14 -25 11 -7 -2 -25 2 -40 10 -15 8 -33 14 -40
14 -7 0 -18 7 -25 15 -7 8 -27 15 -45 15 -18 0 -38 7 -45 15 -7 8 -20 15 -30
15 -10 0 -23 7 -30 15 -7 8 -18 15 -25 15 -6 0 -83 36 -169 80 -87 44 -164 80
-171 80 -7 0 -18 7 -25 15 -7 8 -20 15 -30 15 -10 0 -23 7 -30 15 -7 8 -20 15
-30 15 -10 0 -23 7 -30 15 -7 8 -19 15 -27 15 -8 0 -25 11 -39 25 -14 14 -34
25 -44 25 -11 0 -20 4 -20 10 0 5 -11 12 -24 16 -13 3 -34 17 -47 30 -12 13
-29 24 -37 24 -8 0 -30 13 -49 30 -18 16 -39 30 -45 30 -5 0 -26 13 -45 30
-18 16 -40 30 -47 30 -7 0 -23 11 -36 25 -13 14 -31 25 -40 25 -9 0 -34 18
-55 40 -21 22 -46 40 -55 40 -9 0 -36 20 -60 45 -24 25 -51 45 -60 45 -9 0
-40 25 -70 55 -30 30 -61 55 -70 55 -8 0 -49 34 -90 76 -41 42 -87 81 -101 88
-34 14 -449 420 -449 438 0 7 -38 51 -85 98 -47 47 -85 90 -85 97 0 8 -25 38
-55 68 -30 31 -55 61 -55 68 0 7 -20 33 -45 57 -25 24 -45 51 -45 60 0 9 -13
29 -30 45 -17 16 -30 36 -30 44 0 9 -18 32 -40 51 -22 19 -40 42 -40 51 0 8
-14 28 -30 44 -17 16 -30 36 -30 46 0 9 -7 22 -15 29 -8 7 -15 21 -15 30 0 10
-11 27 -25 38 -14 11 -25 27 -25 35 0 8 -7 20 -15 27 -8 7 -15 20 -15 29 0 10
-14 30 -30 46 -17 16 -30 37 -30 46 0 10 -4 20 -9 24 -6 3 -40 66 -76 140 -36
74 -70 137 -75 140 -6 3 -10 14 -10 24 0 10 -7 24 -15 31 -8 7 -15 20 -15 30
0 10 -7 23 -15 30 -8 7 -15 22 -15 34 0 12 -18 57 -40 101 -22 44 -40 90 -40
102 0 12 -7 28 -15 37 -8 8 -15 21 -15 29 0 8 -7 20 -15 27 -8 7 -15 27 -15
45 0 18 -7 38 -15 45 -8 7 -15 25 -15 40 0 15 -7 33 -15 40 -8 7 -15 27 -15
45 0 18 -7 38 -15 45 -8 7 -15 25 -15 40 0 15 -7 33 -15 40 -9 8 -15 30 -15
60 0 30 -6 52 -15 60 -8 7 -15 29 -15 50 0 20 -7 51 -16 69 -9 18 -13 42 -10
55 4 15 0 28 -9 36 -9 7 -15 29 -15 54 0 23 -7 51 -15 62 -8 11 -15 41 -15 70
0 28 -6 59 -15 70 -9 12 -14 43 -15 85 0 41 -5 72 -15 85 -10 13 -14 47 -15
115 0 73 -4 100 -15 109 -12 10 -15 45 -15 193 0 141 -3 184 -14 196 -20 22
-27 374 -8 392 9 10 12 64 12 200 0 154 3 189 15 199 11 9 15 34 15 101 0 48
5 91 10 94 6 3 10 39 10 79 0 53 4 77 15 86 10 8 15 31 15 70 0 39 5 62 15 70
9 8 15 30 15 60 0 29 6 52 14 59 9 8 12 24 9 49 -4 27 -1 42 11 51 9 7 16 28
16 46 0 18 7 38 15 45 8 7 15 27 15 45 0 18 7 38 15 45 8 7 15 27 15 45 0 19
6 35 12 37 7 3 11 18 10 35 -1 17 4 36 13 43 8 7 15 27 15 45 0 18 7 38 15 45
8 7 15 27 15 45 0 18 7 38 15 45 8 7 15 21 15 30 0 10 6 20 12 22 7 3 11 18
10 35 -1 17 4 36 13 43 8 7 15 20 15 30 0 10 7 23 15 30 8 7 15 20 15 30 0 10
7 23 15 30 8 7 15 20 15 30 0 10 7 23 15 30 9 7 13 20 10 30 -3 9 25 76 65
154 38 76 70 143 70 151 0 7 7 18 15 25 8 7 15 20 15 29 0 10 14 30 30 46 17
16 30 36 30 46 0 9 7 22 15 29 8 7 15 18 15 25 0 18 28 71 46 86 9 7 29 41 45
74 16 34 38 70 49 80 11 10 20 26 20 35 0 10 7 23 15 30 8 7 15 20 15 29 0 10
11 28 25 41 14 13 25 31 25 40 0 9 14 29 30 45 17 16 30 35 30 43 0 8 14 30
30 49 17 18 30 40 30 47 0 7 11 23 25 36 14 13 25 31 25 40 0 9 14 29 30 45
17 16 30 36 30 45 0 9 11 27 25 40 14 13 25 31 25 39 0 9 20 36 45 60 25 24
45 50 45 58 0 8 11 25 25 39 14 14 25 31 25 38 0 7 25 39 55 70 30 31 55 63
55 71 0 8 20 35 45 61 25 25 45 51 45 58 0 7 25 38 55 70 30 31 55 63 55 71 0
8 25 39 55 70 30 30 55 61 55 69 0 8 32 47 70 86 39 39 70 77 70 85 0 7 36 50
80 96 44 45 80 88 80 96 0 8 55 70 123 139 67 69 127 136 133 150 6 14 88 103
182 197 94 95 175 182 179 194 9 24 179 201 589 614 l274 276 0 50 c0 32 -5
55 -14 63 -8 6 -16 21 -18 33 -2 14 -11 23 -25 25 -12 2 -27 10 -33 18 -16 19
-84 18 -100 -1z"/>
<path d="M3869 11023 c-64 -54 -374 -375 -388 -401 -7 -15 -71 -86 -142 -158
-71 -72 -129 -137 -129 -144 0 -7 -31 -46 -70 -86 -38 -39 -70 -78 -70 -85 0
-7 -31 -45 -70 -85 -38 -39 -70 -78 -70 -85 0 -8 -18 -34 -40 -57 -22 -24 -40
-49 -40 -56 0 -7 -14 -25 -31 -42 -17 -16 -40 -45 -52 -64 -11 -19 -36 -52
-54 -73 -18 -20 -33 -43 -33 -50 0 -7 -18 -31 -40 -52 -22 -21 -40 -45 -40
-53 0 -8 -13 -30 -30 -49 -16 -18 -30 -40 -30 -47 0 -7 -11 -23 -25 -36 -14
-13 -25 -31 -25 -40 0 -9 -13 -29 -30 -45 -16 -16 -30 -36 -30 -45 0 -9 -11
-27 -25 -40 -14 -13 -25 -29 -25 -36 0 -13 -33 -69 -69 -116 -12 -14 -21 -31
-21 -37 0 -10 -34 -65 -65 -106 -8 -10 -15 -27 -15 -36 0 -10 -4 -21 -10 -24
-5 -3 -21 -30 -35 -59 -14 -29 -34 -61 -45 -71 -11 -10 -20 -23 -20 -29 0 -7
-18 -47 -40 -90 -22 -43 -40 -84 -40 -91 0 -7 -7 -18 -15 -25 -8 -7 -15 -20
-15 -30 0 -10 -7 -23 -15 -30 -8 -7 -15 -20 -15 -30 0 -10 -7 -23 -15 -30 -8
-7 -15 -21 -15 -31 0 -11 -4 -19 -10 -19 -5 0 -10 -15 -10 -34 0 -18 -7 -39
-15 -46 -8 -7 -15 -20 -15 -30 0 -10 -7 -23 -15 -30 -8 -7 -15 -20 -15 -30 0
-10 -7 -23 -15 -30 -8 -7 -15 -24 -15 -38 0 -29 -30 -102 -42 -102 -4 0 -8
-15 -8 -34 0 -18 -7 -39 -15 -46 -8 -7 -15 -21 -15 -31 0 -17 -18 -66 -41
-111 -5 -10 -9 -29 -9 -42 0 -14 -7 -31 -15 -40 -8 -8 -15 -28 -15 -44 0 -16
-7 -35 -15 -42 -9 -8 -15 -30 -15 -60 0 -30 -6 -52 -15 -60 -8 -7 -15 -28 -15
-46 0 -19 -4 -34 -10 -34 -5 0 -10 -22 -10 -49 0 -31 -5 -53 -15 -61 -9 -8
-15 -30 -15 -60 0 -30 -6 -52 -15 -60 -10 -8 -15 -31 -15 -69 0 -31 -5 -62
-12 -69 -6 -6 -11 -35 -9 -65 1 -38 -3 -57 -14 -67 -11 -9 -15 -33 -15 -99 -1
-60 -5 -92 -15 -105 -11 -15 -15 -49 -15 -131 0 -64 -4 -115 -10 -121 -7 -7
-11 -140 -10 -394 0 -324 3 -386 15 -400 11 -13 15 -44 15 -127 0 -86 3 -113
15 -123 11 -9 15 -34 15 -100 0 -66 4 -91 15 -100 10 -8 15 -31 15 -70 0 -39
5 -62 15 -70 9 -7 15 -29 15 -55 0 -26 6 -48 15 -55 9 -8 15 -30 15 -60 0 -30
6 -52 15 -60 8 -7 15 -24 15 -39 0 -14 7 -35 15 -45 8 -11 15 -38 15 -60 0
-23 7 -50 15 -60 8 -11 13 -27 10 -37 -3 -9 1 -22 10 -29 8 -7 15 -23 15 -36
0 -24 35 -100 51 -110 5 -3 9 -20 9 -38 0 -19 7 -39 15 -46 8 -7 15 -20 15
-30 0 -10 7 -23 15 -30 8 -7 15 -25 15 -40 0 -15 7 -33 15 -40 8 -7 15 -18 15
-25 0 -13 41 -95 92 -185 4 -8 11 -22 14 -30 3 -8 10 -22 15 -30 5 -8 12 -22
15 -30 3 -8 10 -22 15 -30 5 -8 14 -26 19 -39 6 -13 20 -32 30 -41 11 -10 20
-24 20 -32 0 -9 7 -21 15 -28 8 -7 15 -18 15 -26 0 -7 13 -29 30 -47 17 -19
30 -40 30 -45 0 -6 14 -27 30 -45 17 -19 30 -39 30 -44 0 -5 11 -20 25 -33 14
-13 25 -31 25 -40 0 -9 13 -29 29 -44 16 -16 32 -38 35 -51 3 -12 28 -43 56
-68 27 -25 50 -52 50 -59 0 -8 27 -40 60 -73 33 -33 60 -67 60 -76 0 -21 523
-533 548 -537 10 -2 50 -34 87 -72 38 -39 77 -70 85 -70 9 0 34 -18 55 -40 21
-22 46 -40 55 -40 9 0 34 -18 55 -40 21 -22 46 -40 55 -40 9 0 29 -14 45 -30
16 -17 35 -30 43 -30 8 0 30 -13 49 -30 18 -16 40 -30 47 -30 7 0 23 -11 36
-25 13 -14 31 -25 41 -25 9 0 22 -7 29 -15 7 -8 18 -15 24 -15 7 0 23 -11 36
-25 13 -14 31 -25 41 -25 9 0 22 -7 29 -15 7 -8 20 -15 30 -15 10 0 23 -7 30
-15 7 -8 18 -15 25 -15 6 0 33 -11 59 -25 26 -14 53 -25 60 -25 8 0 19 -7 26
-15 7 -8 20 -15 30 -15 10 0 23 -7 30 -15 7 -8 20 -15 30 -15 10 0 23 -7 30
-15 7 -8 21 -15 31 -15 11 0 19 -4 19 -8 0 -9 69 -42 87 -42 6 0 16 -7 23 -15
7 -8 27 -15 45 -15 18 0 38 -7 45 -15 7 -8 21 -15 31 -15 10 0 21 -4 24 -10 3
-5 19 -10 35 -10 16 0 35 -7 44 -15 8 -8 28 -15 44 -15 16 0 35 -7 42 -15 7
-8 27 -15 45 -15 18 0 38 -7 45 -15 7 -8 27 -15 46 -15 18 0 36 -4 39 -10 3
-5 19 -10 34 -10 16 0 34 -7 41 -15 8 -9 30 -15 60 -15 30 0 52 -6 60 -15 8
-9 30 -15 57 -15 28 0 51 -6 61 -16 11 -12 27 -15 57 -11 27 4 51 1 69 -8 16
-8 52 -15 81 -15 35 0 57 -5 65 -15 9 -11 33 -15 84 -15 48 -1 78 -6 91 -16
16 -12 44 -14 127 -12 74 1 112 -2 120 -10 9 -9 115 -12 424 -12 354 0 413 2
424 15 10 12 37 15 124 15 83 0 117 4 132 15 12 9 43 14 86 15 45 0 71 5 82
15 10 10 36 15 85 15 48 0 74 5 85 15 8 9 33 15 59 15 27 0 49 6 57 15 7 9 29
15 55 15 26 0 48 6 55 15 7 9 29 15 55 15 26 0 48 6 55 15 8 9 30 15 60 15 30
0 52 6 60 15 7 8 24 15 39 15 14 0 35 7 45 15 11 8 30 15 42 15 12 0 34 6 49
14 15 8 33 12 40 10 6 -3 18 2 25 11 7 8 20 15 30 15 10 0 23 7 30 15 7 8 25
15 41 15 15 0 34 7 43 15 8 8 21 15 29 15 8 0 20 7 27 15 7 8 27 15 45 15 18
0 38 7 45 15 7 8 21 15 31 15 10 0 21 4 24 10 3 5 23 17 43 26 20 8 44 20 52
25 8 4 41 21 73 36 31 15 57 31 57 35 0 4 8 8 19 8 10 0 24 7 31 15 7 8 20 15
30 15 10 0 23 7 30 15 7 8 20 15 30 15 10 0 23 7 30 15 7 8 16 12 21 10 4 -3
23 8 41 25 l33 30 -172 170 c-95 94 -173 176 -173 184 0 8 -140 152 -312 320
-227 224 -317 306 -334 306 -24 0 -100 -35 -110 -51 -3 -5 -20 -9 -38 -9 -19
0 -39 -7 -46 -15 -7 -8 -20 -15 -30 -15 -10 0 -23 -7 -30 -15 -7 -8 -25 -15
-40 -15 -15 0 -33 -7 -40 -15 -7 -8 -19 -15 -27 -15 -7 0 -25 -7 -38 -16 -14
-9 -32 -14 -40 -11 -8 4 -21 0 -29 -8 -8 -8 -28 -15 -44 -15 -16 0 -35 -7 -42
-15 -7 -9 -29 -15 -55 -15 -26 0 -48 -6 -55 -15 -7 -9 -29 -15 -54 -15 -23 0
-51 -7 -62 -15 -10 -8 -38 -15 -60 -15 -24 0 -47 -6 -54 -15 -9 -11 -33 -15
-85 -15 -52 0 -76 -4 -85 -15 -9 -11 -34 -15 -96 -15 -59 0 -87 -4 -97 -15
-13 -12 -72 -15 -378 -15 -239 -1 -366 3 -373 10 -5 5 -49 10 -97 10 -65 0
-90 4 -99 15 -9 11 -33 15 -84 15 -46 1 -78 6 -90 15 -11 8 -39 15 -62 15 -24
0 -46 5 -49 10 -3 6 -26 10 -49 10 -27 0 -48 6 -56 15 -7 8 -27 15 -45 15 -18
0 -38 7 -45 15 -7 8 -27 15 -45 15 -18 0 -38 7 -45 15 -7 8 -28 15 -46 15 -19
0 -34 5 -34 10 0 6 -15 10 -34 10 -18 0 -39 7 -46 15 -7 8 -20 15 -30 15 -10
0 -23 7 -30 15 -7 8 -20 15 -30 15 -10 0 -23 7 -30 15 -7 8 -25 15 -40 15 -30
0 -252 109 -285 140 -12 11 -28 20 -37 20 -9 0 -21 7 -28 15 -7 8 -19 15 -27
15 -9 0 -31 14 -50 30 -18 17 -40 30 -47 30 -7 0 -23 11 -36 25 -13 14 -31 25
-40 25 -9 0 -29 13 -45 30 -16 16 -36 30 -45 30 -8 0 -40 25 -70 55 -30 30
-61 55 -70 55 -8 0 -58 43 -110 95 -52 52 -102 95 -110 95 -20 0 -126 108
-134 136 -4 12 -49 62 -101 112 -52 50 -95 97 -95 105 0 7 -20 33 -45 57 -25
24 -45 51 -45 60 0 9 -18 34 -40 55 -22 21 -40 45 -40 52 0 8 -13 27 -30 43
-16 16 -30 36 -30 43 0 8 -7 20 -15 27 -8 7 -15 20 -15 29 0 10 -13 30 -30 46
-16 15 -28 31 -26 34 2 3 -7 24 -20 46 -13 22 -26 47 -30 55 -3 8 -10 22 -15
30 -5 8 -12 22 -15 30 -3 8 -9 22 -14 30 -5 8 -21 38 -35 67 -14 28 -30 55
-35 58 -6 3 -10 14 -10 24 0 10 -7 24 -15 31 -8 7 -15 27 -15 44 0 17 -7 40
-15 50 -8 11 -13 27 -10 37 3 9 -1 22 -10 29 -8 7 -15 25 -15 39 0 15 -7 36
-15 47 -8 10 -15 31 -15 45 0 15 -7 32 -15 39 -8 7 -15 27 -15 45 0 18 -7 38
-15 45 -10 8 -15 31 -15 70 0 39 -5 62 -15 70 -10 8 -15 31 -15 70 0 39 -5 62
-15 70 -11 9 -15 34 -15 100 0 66 -4 91 -15 100 -13 11 -15 65 -15 374 0 257
3 365 11 373 7 7 11 44 10 96 -2 65 1 87 14 97 11 9 15 32 15 84 1 46 6 78 15
90 8 11 15 38 15 61 0 23 5 46 12 53 7 7 11 29 10 50 -2 25 3 44 13 52 10 8
15 29 15 60 0 30 6 52 15 60 8 7 15 27 15 45 0 18 7 38 15 45 8 7 15 25 15 41
0 15 5 31 10 34 6 3 10 21 10 39 0 19 7 39 15 46 8 7 15 27 15 45 0 18 7 38
15 45 8 7 15 20 15 30 0 10 7 23 15 30 8 7 15 24 15 39 0 14 7 35 15 45 8 10
12 22 10 26 -3 4 2 13 10 20 8 7 15 20 15 30 0 10 7 23 15 30 8 7 15 20 15 30
0 10 7 23 15 30 8 7 15 27 15 46 0 18 5 36 10 39 6 4 24 32 41 63 17 31 48 89
69 127 21 39 39 76 39 82 1 15 67 119 81 128 5 3 10 14 10 24 0 10 11 28 25
41 14 13 25 31 25 40 0 9 14 29 30 45 17 16 30 36 30 45 0 9 11 27 25 40 14
13 25 31 25 40 0 9 14 29 30 45 17 16 30 36 30 44 0 9 18 33 40 55 22 21 40
46 40 55 0 9 20 36 45 59 25 23 45 49 45 57 0 8 18 33 40 55 22 22 40 47 40
55 0 9 18 40 40 70 22 30 40 61 40 68 0 8 7 20 15 27 8 7 15 20 15 30 0 9 9
25 21 36 28 25 59 91 59 125 0 14 7 32 15 39 8 7 15 20 15 30 0 10 7 23 15 30
8 7 15 27 15 45 0 19 6 35 12 37 7 3 11 18 10 35 -1 17 4 36 13 43 8 7 15 27
15 45 0 18 7 38 15 45 10 9 15 31 15 72 0 33 7 72 15 88 12 24 14 65 8 259 -5
175 -9 234 -20 242 -8 7 -13 32 -13 64 0 28 -7 66 -16 84 -9 18 -13 42 -10 55
4 15 0 28 -9 36 -8 7 -15 25 -15 39 0 15 -7 36 -15 47 -8 10 -15 31 -15 45 0
15 -7 32 -15 39 -8 7 -15 20 -15 30 0 10 -7 23 -15 30 -8 7 -15 27 -15 45 0
18 -7 38 -15 45 -8 7 -15 18 -15 25 0 7 -7 18 -15 25 -8 7 -15 21 -15 31 0 16
-34 49 -51 49 -4 0 -22 -12 -40 -27z"/>
<path d="M18972 9488 c-7 -7 -12 -20 -12 -29 0 -9 -7 -22 -15 -29 -9 -8 -15
-30 -15 -60 0 -30 6 -52 15 -60 8 -7 15 -21 15 -31 0 -10 4 -20 9 -23 15 -10
101 -191 101 -214 0 -11 7 -27 15 -36 8 -8 15 -21 15 -29 0 -8 7 -20 15 -27 8
-7 15 -20 15 -30 0 -10 7 -23 15 -30 8 -7 15 -20 15 -30 0 -10 7 -23 15 -30 8
-7 15 -23 15 -36 0 -12 11 -44 25 -71 14 -26 28 -61 29 -78 2 -16 9 -31 15
-33 6 -2 11 -18 11 -37 0 -18 7 -38 15 -45 8 -7 15 -25 15 -41 0 -15 7 -34 15
-43 8 -8 15 -28 15 -44 0 -16 7 -35 15 -42 8 -7 15 -27 15 -45 0 -18 7 -38 15
-45 8 -7 15 -25 15 -40 0 -15 7 -33 15 -40 9 -8 15 -30 15 -57 0 -26 6 -51 15
-59 9 -9 15 -34 15 -58 0 -27 6 -48 16 -57 9 -7 14 -25 13 -44 -2 -17 5 -48
15 -69 12 -26 17 -52 13 -77 -3 -26 0 -42 9 -50 9 -7 14 -32 14 -69 0 -39 5
-62 15 -70 11 -9 15 -34 15 -100 0 -66 4 -91 15 -100 11 -10 15 -36 15 -111 0
-70 4 -101 14 -112 11 -10 15 -56 17 -193 2 -122 7 -186 15 -200 8 -14 16 -81
20 -177 6 -136 5 -159 -10 -181 -13 -21 -16 -55 -16 -206 0 -155 -2 -184 -16
-198 -14 -14 -16 -32 -11 -118 4 -79 3 -106 -8 -120 -9 -12 -14 -45 -15 -90 0
-51 -4 -75 -15 -84 -10 -9 -15 -32 -15 -75 0 -43 -5 -66 -15 -75 -10 -8 -15
-31 -15 -71 0 -32 -4 -61 -10 -64 -5 -3 -10 -28 -10 -54 0 -31 -5 -53 -15 -61
-9 -7 -15 -29 -15 -55 0 -26 -6 -48 -15 -55 -9 -8 -15 -30 -15 -60 0 -30 -6
-52 -15 -60 -9 -7 -13 -21 -9 -34 3 -14 -1 -28 -10 -35 -9 -8 -16 -28 -16 -46
0 -18 -7 -38 -15 -45 -8 -7 -15 -27 -15 -45 0 -18 -7 -38 -15 -45 -8 -7 -15
-26 -15 -42 0 -16 -7 -36 -15 -44 -9 -9 -13 -25 -9 -38 3 -14 -1 -27 -10 -35
-9 -8 -16 -21 -16 -31 0 -10 -7 -23 -15 -30 -8 -7 -15 -27 -15 -45 0 -18 -7
-38 -15 -45 -8 -7 -15 -20 -15 -30 0 -10 -7 -23 -15 -30 -9 -7 -13 -21 -9 -35
3 -13 -1 -28 -10 -38 -9 -8 -16 -22 -16 -30 0 -8 -7 -20 -15 -27 -8 -7 -15
-18 -15 -24 0 -6 -18 -47 -40 -90 -22 -43 -40 -84 -40 -91 0 -7 -7 -18 -15
-25 -8 -7 -15 -20 -15 -30 0 -10 -7 -23 -15 -30 -8 -7 -15 -20 -15 -30 0 -10
-7 -23 -15 -30 -8 -7 -15 -19 -15 -27 0 -8 -7 -21 -15 -30 -8 -8 -13 -18 -10
-23 3 -4 -2 -13 -10 -20 -8 -7 -15 -20 -15 -30 0 -10 -7 -23 -15 -30 -8 -7
-15 -20 -15 -30 0 -9 -9 -25 -21 -36 -21 -19 -59 -89 -59 -109 0 -6 -13 -24
-30 -40 -16 -16 -30 -36 -30 -45 0 -9 -11 -27 -25 -40 -14 -13 -25 -31 -25
-40 0 -9 -13 -29 -30 -45 -16 -16 -30 -36 -30 -45 0 -9 -13 -29 -30 -45 -16
-16 -30 -35 -30 -42 0 -8 -18 -32 -40 -54 -22 -22 -40 -47 -40 -54 0 -8 -18
-33 -40 -56 -22 -23 -40 -48 -40 -55 0 -7 -25 -39 -55 -70 -30 -32 -55 -63
-55 -70 0 -6 -45 -58 -100 -115 -55 -57 -100 -110 -100 -118 0 -19 -330 -351
-349 -351 -8 0 -58 -45 -111 -100 -54 -55 -104 -100 -112 -100 -7 0 -40 -27
-73 -60 -32 -32 -62 -57 -67 -54 -5 3 -30 -15 -55 -40 -25 -25 -51 -46 -57
-46 -7 0 -32 -20 -56 -45 -24 -25 -51 -45 -60 -45 -9 0 -27 -11 -40 -25 -13
-14 -29 -25 -36 -25 -7 0 -29 -14 -47 -30 -19 -17 -40 -30 -46 -30 -6 0 -23
-14 -38 -30 -14 -17 -32 -30 -38 -30 -19 0 -78 -31 -105 -55 -14 -13 -35 -26
-47 -30 -13 -3 -23 -11 -23 -16 0 -5 -8 -9 -19 -9 -10 0 -24 -7 -31 -15 -7 -8
-20 -15 -29 -15 -10 0 -30 -14 -46 -30 -16 -17 -36 -30 -44 -31 -9 0 -29 -9
-46 -20 -16 -10 -37 -21 -45 -25 -8 -3 -22 -10 -30 -15 -8 -5 -21 -11 -27 -14
-32 -12 -41 -17 -82 -40 -24 -14 -54 -25 -66 -25 -13 0 -28 -7 -35 -15 -7 -8
-20 -15 -30 -15 -10 0 -23 -7 -30 -15 -7 -8 -20 -15 -30 -15 -10 0 -23 -7 -31
-16 -7 -9 -22 -14 -36 -11 -13 2 -28 -2 -34 -9 -6 -8 -19 -14 -29 -14 -10 0
-23 -7 -30 -15 -7 -8 -25 -15 -41 -15 -15 0 -34 -7 -43 -15 -8 -8 -21 -15 -29
-15 -8 0 -20 -7 -27 -15 -7 -8 -27 -15 -45 -15 -18 0 -38 -7 -45 -15 -7 -8
-25 -15 -40 -15 -15 0 -33 -7 -40 -15 -8 -9 -30 -15 -60 -15 -30 0 -52 -6 -60
-15 -7 -8 -23 -15 -37 -15 -13 0 -34 -7 -47 -15 -13 -9 -40 -15 -60 -13 -22 1
-41 -3 -45 -11 -4 -7 -29 -14 -55 -15 -26 -2 -53 -9 -59 -15 -6 -6 -30 -11
-53 -11 -25 0 -47 -6 -54 -15 -8 -10 -31 -15 -70 -15 -39 0 -62 -5 -70 -15 -9
-11 -34 -15 -100 -15 -66 0 -91 -4 -100 -15 -9 -11 -34 -15 -96 -15 -60 0 -87
-4 -98 -15 -12 -12 -48 -15 -193 -15 -135 0 -183 -3 -198 -14 -29 -19 -389
-28 -413 -10 -12 10 -64 13 -188 14 -140 0 -174 3 -184 15 -10 12 -36 15 -114
15 -64 0 -106 4 -114 12 -6 6 -39 10 -80 9 -52 -1 -72 2 -82 14 -9 10 -30 15
-72 15 -39 0 -64 5 -74 15 -9 8 -34 15 -57 15 -23 0 -50 7 -60 15 -12 8 -31
11 -51 8 -22 -3 -38 0 -49 11 -8 9 -29 16 -45 16 -16 0 -35 7 -42 15 -8 9 -30
15 -60 15 -30 0 -52 6 -60 15 -7 8 -27 15 -46 15 -18 0 -35 4 -39 9 -10 17
-67 41 -95 41 -15 0 -33 7 -40 15 -7 8 -27 15 -45 15 -18 0 -38 7 -45 15 -7 8
-20 15 -30 15 -10 0 -23 7 -30 15 -7 9 -21 13 -34 9 -14 -3 -28 1 -35 10 -8 9
-21 16 -31 16 -10 0 -23 7 -30 15 -7 8 -20 15 -30 15 -10 0 -23 7 -30 15 -7 8
-18 15 -25 15 -6 0 -33 11 -59 25 -26 14 -60 25 -75 25 -16 0 -34 7 -41 15 -7
8 -18 15 -26 15 -7 0 -27 13 -44 30 -17 16 -40 30 -50 30 -11 0 -20 5 -20 10
0 6 -8 10 -19 10 -10 0 -24 7 -31 15 -7 8 -20 15 -30 15 -10 0 -23 7 -30 15
-7 8 -20 15 -30 15 -10 0 -23 7 -30 15 -7 8 -20 15 -29 15 -10 0 -28 11 -41
25 -13 14 -31 25 -41 25 -9 0 -22 7 -29 15 -7 8 -20 15 -29 15 -10 0 -30 13
-46 30 -16 16 -34 30 -40 30 -20 0 -78 33 -103 57 -13 13 -30 23 -38 23 -8 0
-25 11 -37 26 -12 14 -29 26 -38 27 -9 2 -31 15 -48 30 -18 15 -37 27 -43 27
-6 0 -26 14 -45 30 -18 17 -39 30 -45 30 -6 0 -30 18 -54 40 -24 22 -49 40
-56 40 -6 0 -24 12 -39 26 -14 14 -33 26 -42 28 -8 1 -36 21 -61 44 -25 23
-51 42 -59 42 -7 0 -31 18 -52 40 -21 22 -46 40 -55 40 -9 0 -40 25 -70 55
-30 30 -61 55 -70 55 -9 0 -47 32 -85 70 -38 39 -76 70 -85 70 -9 0 -47 32
-85 70 -38 39 -76 70 -85 70 -8 0 -65 50 -125 110 -60 61 -116 110 -125 110
-8 0 -105 88 -215 195 -110 107 -207 195 -215 195 -17 0 -420 399 -420 416 0
6 -121 131 -270 279 -148 148 -270 274 -270 280 0 6 -70 81 -155 165 -85 85
-155 162 -155 171 0 9 -36 50 -80 93 l-81 76 -62 0 c-60 0 -65 -2 -100 -38
-35 -36 -37 -41 -37 -102 l0 -65 109 -105 c60 -58 111 -114 115 -126 3 -11 80
-94 171 -184 91 -89 165 -168 165 -174 0 -11 339 -353 550 -556 47 -45 216
-212 376 -371 160 -159 298 -289 307 -289 8 0 66 -49 128 -110 63 -60 120
-110 129 -110 8 0 53 -39 100 -85 47 -47 92 -85 100 -85 9 0 47 -31 85 -70 38
-38 76 -70 85 -70 9 0 40 -25 70 -55 30 -30 61 -55 70 -55 9 0 40 -25 70 -55
30 -30 61 -55 70 -55 9 0 34 -18 55 -40 21 -22 46 -40 55 -40 9 0 36 -20 60
-45 24 -25 51 -45 60 -45 9 0 27 -11 40 -25 13 -14 31 -25 40 -25 9 0 29 -13
45 -30 16 -16 36 -30 45 -30 9 0 27 -11 40 -25 13 -14 30 -25 38 -25 8 0 28
-13 44 -30 15 -16 35 -30 44 -30 9 0 25 -11 36 -25 11 -14 27 -25 37 -25 10 0
26 -10 37 -21 10 -12 46 -34 80 -50 33 -16 69 -38 79 -49 10 -11 26 -20 35
-20 10 0 23 -7 30 -15 7 -8 20 -15 30 -15 9 0 25 -9 36 -21 19 -22 89 -59 110
-59 6 0 17 -7 24 -15 7 -8 20 -15 30 -15 10 0 23 -7 30 -15 7 -8 21 -15 31
-15 11 0 19 -4 19 -10 0 -5 11 -12 24 -16 13 -3 34 -17 47 -30 12 -13 30 -24
40 -24 9 0 22 -7 29 -15 7 -8 27 -15 45 -15 18 0 38 -7 45 -15 7 -8 18 -15 25
-15 6 0 33 -11 59 -25 26 -14 53 -25 60 -25 8 0 19 -7 26 -15 7 -8 20 -15 30
-15 10 0 23 -7 30 -15 7 -8 22 -15 35 -15 12 0 43 -11 69 -25 26 -14 60 -25
75 -25 16 0 34 -7 41 -15 7 -8 27 -15 45 -15 18 0 38 -7 45 -15 7 -8 21 -15
30 -15 10 0 20 -6 22 -12 3 -7 18 -11 35 -10 17 1 36 -4 43 -13 8 -9 30 -15
60 -15 30 0 52 -6 60 -15 7 -8 24 -15 39 -15 14 0 35 -7 45 -15 11 -8 38 -15
61 -15 23 0 46 -5 53 -12 7 -7 29 -11 51 -10 24 2 45 -3 54 -13 9 -9 33 -15
60 -15 27 0 49 -6 57 -15 8 -10 31 -15 69 -15 31 0 64 -7 73 -14 13 -9 40 -12
93 -8 59 4 79 1 93 -11 22 -20 136 -24 785 -25 317 -1 516 2 527 8 10 6 68 10
128 10 85 0 112 3 122 15 9 11 34 15 100 15 66 0 91 4 100 15 9 11 33 15 85
15 52 0 76 4 85 15 7 9 29 15 55 15 26 0 48 6 55 15 8 10 31 15 69 15 33 1 64
7 75 15 11 8 30 15 42 15 12 0 35 7 50 15 16 8 41 13 55 10 17 -4 30 0 39 10
7 8 25 15 39 15 15 0 36 7 47 15 10 8 38 15 60 15 24 0 47 6 54 15 7 8 25 15
41 15 15 0 34 7 43 15 8 8 21 15 29 15 8 0 20 7 27 15 7 8 27 15 45 15 18 0
38 7 45 15 7 8 23 15 36 15 12 0 44 11 71 25 26 14 61 28 78 29 16 2 31 9 33
15 2 6 12 11 22 11 9 0 23 7 30 15 7 8 20 15 30 15 10 0 23 7 30 15 7 8 27 15
46 15 18 0 36 5 39 11 4 5 17 14 28 20 12 5 29 13 37 18 8 5 48 24 87 43 40
18 73 36 73 41 0 4 8 7 18 7 10 0 31 14 47 30 16 16 36 30 46 30 9 0 22 7 29
15 7 8 20 15 30 15 10 0 23 7 30 15 7 8 20 15 30 15 9 0 26 11 36 25 10 14 26
25 35 25 9 0 22 7 29 15 7 8 20 15 29 15 10 0 30 13 46 30 16 16 36 30 45 30
9 0 29 13 45 30 16 16 34 30 40 30 6 0 22 11 35 25 13 14 31 25 40 25 9 0 29
14 45 30 16 17 36 30 45 30 9 0 34 18 55 40 21 22 45 40 52 40 7 0 32 20 55
45 23 25 49 45 58 45 9 0 47 32 85 70 38 39 75 70 83 70 17 0 694 684 707 715
6 13 41 55 78 93 37 39 67 76 67 82 0 7 18 32 40 56 22 24 40 49 40 57 0 7 18
31 40 52 22 21 40 45 40 53 0 8 14 30 30 49 17 18 30 39 30 46 0 7 18 31 40
52 22 21 40 47 40 56 0 9 7 22 15 29 8 7 15 19 15 27 0 9 14 31 30 50 17 18
30 40 30 47 0 7 11 23 25 36 14 13 25 31 25 41 0 9 7 22 15 29 8 7 15 20 15
29 0 10 11 28 25 41 14 13 25 31 25 41 0 9 7 22 15 29 8 7 15 20 15 30 0 10 7
23 15 30 8 7 15 21 15 31 0 11 4 19 8 19 7 0 16 18 46 90 3 8 10 23 16 33 5 9
15 25 20 35 6 9 13 24 16 32 3 8 10 22 15 30 5 8 12 22 15 30 3 8 17 37 30 63
13 27 24 55 24 62 0 7 7 18 15 25 8 7 15 19 15 27 0 8 7 21 15 29 8 9 15 26
15 38 0 13 11 44 25 70 14 26 25 60 25 75 0 16 7 34 15 41 8 7 15 20 15 30 0
10 7 23 15 30 8 7 15 24 15 39 0 14 7 34 14 44 7 9 11 27 9 40 -3 14 2 29 11
36 9 8 16 28 16 46 0 18 7 38 15 45 8 7 15 26 15 42 0 16 7 36 15 44 8 9 15
28 15 43 0 15 5 32 12 39 6 6 11 31 9 55 -1 30 3 48 14 57 9 8 15 29 15 55 0
26 6 48 15 55 9 8 15 30 15 60 0 31 5 52 16 61 10 8 14 22 10 39 -2 15 2 39
10 54 8 16 14 54 14 86 0 39 5 62 15 70 11 9 15 33 15 85 0 53 4 76 15 85 12
10 15 32 14 96 -1 47 3 90 9 97 6 7 13 66 16 132 8 211 5 1169 -5 1179 -5 6
-9 60 -9 122 0 87 -3 114 -15 124 -11 9 -15 34 -15 100 0 66 -4 91 -15 100
-10 8 -15 30 -15 65 0 29 -7 69 -15 88 -8 20 -15 61 -15 90 0 37 -5 59 -15 67
-10 8 -15 27 -14 49 1 20 -6 50 -15 66 -9 18 -14 41 -11 56 4 17 0 32 -9 42
-9 9 -16 33 -16 54 0 22 -7 48 -15 59 -8 10 -15 38 -15 60 0 24 -6 47 -15 54
-8 7 -15 25 -15 39 0 15 -7 36 -15 47 -8 10 -15 31 -15 45 0 15 -7 32 -15 39
-8 7 -15 27 -15 45 0 18 -7 38 -15 45 -8 7 -15 25 -15 40 0 15 -7 33 -15 40
-8 7 -15 24 -15 38 0 29 -30 102 -42 102 -4 0 -8 15 -8 34 0 18 -7 39 -15 46
-8 7 -15 25 -15 41 0 15 -7 34 -15 43 -8 8 -15 21 -15 29 0 8 -7 20 -15 27 -8
7 -15 20 -15 30 0 10 -7 23 -15 30 -8 7 -15 20 -15 30 0 10 -7 23 -15 30 -8 7
-15 22 -15 35 0 23 -88 208 -102 213 -4 2 -8 11 -8 21 0 9 -19 36 -43 59 -42
41 -44 42 -113 42 -41 0 -75 -5 -82 -12z"/>
<path d="M18150 8855 c-7 -8 -18 -15 -25 -15 -12 0 -392 -379 -764 -760 -160
-165 -160 -165 -161 -211 0 -30 6 -51 15 -59 8 -7 15 -20 15 -30 0 -10 7 -23
15 -30 8 -7 15 -25 15 -40 0 -28 24 -85 41 -95 5 -4 9 -17 9 -31 0 -13 14 -50
30 -81 17 -31 30 -66 30 -78 0 -12 7 -28 15 -35 9 -8 15 -29 15 -56 0 -24 6
-49 15 -58 8 -8 15 -28 15 -44 0 -16 7 -35 15 -42 9 -7 15 -29 15 -55 0 -26 6
-48 15 -55 10 -9 15 -31 15 -72 0 -39 5 -64 15 -74 10 -11 15 -37 15 -82 1
-43 6 -74 15 -86 11 -14 15 -47 15 -117 0 -74 4 -100 15 -109 13 -11 15 -55
15 -290 0 -235 -2 -279 -15 -290 -12 -10 -15 -38 -15 -130 0 -82 -4 -120 -12
-122 -7 -3 -11 -26 -9 -64 1 -45 -2 -64 -14 -74 -10 -8 -15 -30 -15 -70 0 -39
-5 -62 -15 -70 -9 -8 -15 -30 -15 -60 0 -30 -6 -52 -15 -60 -9 -7 -13 -21 -9
-35 3 -13 -1 -28 -10 -38 -9 -8 -16 -29 -16 -45 0 -16 -7 -35 -15 -42 -8 -7
-15 -27 -15 -45 0 -18 -7 -38 -15 -45 -8 -7 -15 -27 -15 -45 0 -18 -7 -38 -15
-45 -8 -7 -15 -21 -15 -31 0 -11 -4 -19 -10 -19 -5 0 -10 -15 -10 -34 0 -18
-7 -39 -15 -46 -8 -7 -15 -20 -15 -30 0 -10 -7 -23 -15 -30 -8 -7 -15 -20 -15
-30 0 -10 -7 -23 -15 -30 -8 -7 -15 -21 -15 -31 0 -10 -4 -21 -10 -24 -5 -3
-10 -14 -10 -24 0 -10 -7 -24 -15 -31 -8 -7 -15 -20 -15 -30 0 -10 -7 -23 -15
-30 -8 -7 -15 -21 -15 -31 0 -11 -4 -19 -10 -19 -5 0 -12 -11 -16 -24 -3 -13
-17 -34 -30 -47 -13 -12 -24 -29 -24 -37 0 -8 -13 -30 -30 -49 -16 -18 -30
-40 -30 -47 0 -7 -11 -23 -25 -36 -14 -13 -25 -31 -25 -40 0 -9 -13 -29 -30
-45 -16 -16 -30 -36 -30 -45 0 -8 -25 -40 -55 -70 -30 -29 -55 -61 -57 -71 -4
-22 -472 -499 -490 -499 -8 0 -38 -25 -68 -55 -30 -30 -60 -55 -68 -55 -7 0
-27 -13 -44 -30 -16 -16 -36 -30 -44 -30 -8 0 -22 -9 -32 -21 -19 -23 -117
-89 -132 -89 -5 0 -24 -12 -42 -27 -37 -31 -66 -50 -88 -59 -8 -3 -22 -10 -30
-15 -8 -5 -22 -12 -30 -15 -8 -3 -22 -10 -30 -15 -8 -5 -22 -12 -30 -15 -31
-12 -36 -15 -65 -33 -16 -11 -37 -20 -46 -20 -9 -1 -22 -8 -29 -16 -7 -8 -20
-15 -30 -15 -10 0 -23 -7 -30 -15 -7 -8 -25 -15 -40 -15 -15 0 -33 -7 -40 -15
-7 -8 -27 -15 -44 -15 -18 0 -37 -5 -44 -12 -16 -16 -80 -39 -124 -45 -21 -3
-42 -11 -49 -19 -6 -8 -25 -14 -41 -14 -16 0 -36 -7 -44 -15 -9 -8 -33 -15
-55 -15 -22 0 -50 -7 -63 -16 -14 -9 -42 -14 -68 -13 -24 1 -56 -6 -73 -15
-22 -12 -50 -16 -101 -14 -51 1 -77 -2 -89 -12 -15 -13 -84 -16 -405 -18 -343
-3 -388 -2 -399 12 -10 12 -33 16 -100 16 -53 0 -92 5 -99 12 -6 6 -35 11 -66
9 -34 -1 -66 4 -85 14 -17 8 -50 15 -74 15 -27 0 -49 6 -57 15 -7 9 -29 15
-54 15 -23 0 -47 5 -53 11 -6 6 -26 13 -44 15 -18 2 -38 9 -43 14 -6 6 -29 10
-52 10 -25 0 -47 6 -54 15 -7 8 -27 15 -45 15 -18 0 -38 7 -45 15 -7 8 -27 15
-45 15 -18 0 -38 7 -45 15 -7 8 -21 15 -31 15 -10 0 -21 5 -24 10 -3 6 -17 10
-29 10 -13 0 -48 14 -79 30 -31 17 -65 30 -75 30 -11 0 -40 11 -66 25 -26 14
-53 25 -60 25 -8 0 -19 7 -26 15 -7 8 -20 15 -30 15 -10 0 -23 7 -30 15 -7 8
-20 15 -30 15 -10 0 -23 7 -30 15 -7 8 -19 15 -27 15 -8 0 -21 7 -30 15 -8 8
-18 13 -23 10 -4 -3 -13 2 -20 10 -7 8 -19 15 -27 15 -8 0 -40 17 -72 38 -65
44 -119 72 -136 72 -6 0 -24 14 -40 30 -16 17 -36 30 -45 30 -9 0 -27 11 -40
25 -13 14 -31 25 -40 25 -9 0 -29 13 -45 30 -16 17 -36 30 -45 30 -9 0 -29 14
-45 30 -16 17 -35 30 -42 30 -7 0 -31 18 -53 40 -22 22 -47 40 -55 40 -8 0
-33 18 -55 40 -22 22 -46 40 -54 40 -8 0 -35 20 -60 45 -26 25 -52 45 -59 45
-7 0 -22 9 -34 19 -11 10 -45 31 -75 45 -30 14 -63 35 -73 46 -10 11 -26 20
-35 20 -10 0 -23 7 -30 15 -7 8 -20 15 -30 15 -10 0 -23 7 -30 15 -7 8 -20 15
-30 15 -10 0 -23 7 -30 15 -7 8 -19 15 -26 15 -8 0 -22 4 -32 9 -40 20 -94 41
-106 41 -8 0 -19 7 -26 15 -7 8 -27 15 -45 15 -18 0 -38 7 -45 15 -8 10 -30
15 -61 15 -26 0 -51 5 -54 10 -3 6 -39 10 -79 10 -53 0 -77 4 -86 15 -18 22
-427 22 -456 0 -11 -8 -42 -14 -75 -15 -38 0 -61 -5 -69 -15 -7 -9 -29 -15
-55 -15 -26 0 -48 -6 -55 -15 -7 -8 -27 -15 -45 -15 -18 0 -38 -7 -45 -15 -7
-8 -25 -15 -40 -15 -15 0 -33 -7 -40 -15 -7 -8 -25 -15 -40 -15 -28 0 -85 -24
-95 -41 -4 -5 -14 -9 -24 -9 -10 0 -24 -7 -31 -15 -7 -8 -20 -15 -29 -15 -10
0 -30 -13 -45 -29 l-28 -29 277 -274 c152 -150 287 -278 300 -283 13 -6 66
-52 119 -103 52 -50 101 -92 108 -92 7 0 46 -32 86 -70 40 -39 79 -70 86 -70
7 0 39 -25 70 -55 31 -30 62 -55 70 -55 7 0 39 -25 70 -55 31 -30 62 -55 69
-55 6 0 34 -20 60 -45 27 -25 55 -45 62 -45 7 0 23 -11 36 -25 13 -13 30 -25
38 -25 8 0 36 -20 62 -45 26 -25 54 -45 62 -45 7 0 24 -11 37 -25 13 -14 30
-25 38 -25 8 0 30 -13 49 -30 18 -16 40 -30 47 -30 7 0 23 -11 36 -25 13 -14
30 -25 37 -25 8 0 26 -8 41 -18 74 -51 109 -72 118 -72 6 0 21 -11 34 -25 13
-14 31 -25 41 -25 9 0 22 -7 29 -15 7 -8 18 -15 26 -15 12 0 65 -31 109 -65
10 -8 27 -15 37 -15 10 0 18 -3 18 -7 0 -5 33 -23 73 -41 39 -19 79 -38 87
-43 8 -5 22 -12 30 -15 8 -3 22 -10 30 -15 8 -5 22 -12 30 -15 8 -3 22 -10 30
-15 8 -5 22 -12 30 -15 8 -3 22 -10 30 -15 8 -5 22 -12 30 -15 39 -15 66 -27
80 -35 72 -41 148 -73 165 -71 12 2 28 -4 35 -12 7 -9 20 -16 30 -16 10 0 23
-7 30 -15 7 -8 27 -15 46 -15 18 0 36 -4 39 -10 10 -16 78 -45 101 -42 11 2
27 -4 34 -12 7 -9 27 -16 45 -16 18 0 38 -7 45 -15 7 -8 27 -15 45 -15 18 0
38 -7 45 -15 7 -8 24 -15 39 -15 14 0 34 -7 44 -14 9 -7 27 -11 40 -9 14 3 29
-2 36 -11 9 -11 30 -16 61 -16 30 0 52 -6 60 -15 7 -8 23 -15 37 -15 13 0 35
-7 49 -16 16 -11 36 -15 57 -11 19 3 43 -1 57 -9 14 -7 46 -13 71 -14 29 0 51
-6 59 -15 9 -10 31 -15 72 -15 39 0 64 -5 74 -15 12 -11 39 -15 104 -15 59 0
90 -4 92 -12 3 -8 33 -11 102 -9 81 2 101 -1 117 -15 17 -15 53 -16 441 -12
365 5 427 8 453 22 22 12 57 16 130 16 67 0 105 4 113 12 7 7 42 13 82 14 40
1 76 7 85 14 9 7 39 12 69 11 37 0 58 4 66 14 7 9 29 15 54 15 23 0 51 7 62
15 10 8 38 15 60 15 24 0 47 6 54 15 7 8 25 15 41 15 15 0 34 7 43 15 8 9 33
15 59 15 27 0 49 6 57 15 7 8 25 15 40 15 15 0 33 7 40 15 7 8 22 15 34 15 11
0 30 7 40 15 11 8 30 15 42 15 12 0 27 7 35 16 8 9 21 13 35 10 13 -4 25 -2
28 3 9 14 151 81 173 81 11 0 26 7 33 15 7 8 20 15 30 15 10 0 23 7 30 15 7 8
21 15 31 15 10 0 21 4 24 10 3 5 23 17 43 26 20 8 44 20 52 25 8 5 29 15 45
22 17 8 36 21 44 30 7 9 37 28 65 41 29 14 58 32 65 40 7 9 41 29 75 45 33 16
70 38 80 50 11 11 25 21 32 21 8 0 27 13 42 30 16 16 36 30 44 30 7 0 32 18
53 40 21 22 45 40 52 40 8 0 36 20 62 45 26 25 53 45 60 45 7 0 49 38 95 85
45 47 89 85 97 85 20 0 459 444 459 464 0 8 32 47 70 87 39 40 70 79 70 86 0
7 18 32 40 55 22 24 40 49 40 56 0 7 18 32 40 54 22 23 40 49 40 58 0 9 14 29
30 43 17 15 30 35 30 45 0 9 11 26 25 36 14 10 25 25 25 34 0 8 14 30 30 49
17 18 30 40 30 47 0 7 11 23 25 36 14 13 25 31 25 41 0 9 7 22 15 29 8 7 15
20 15 30 0 9 9 25 21 36 21 19 89 148 89 170 0 6 7 17 15 24 8 7 15 20 15 30
0 10 7 23 15 30 8 7 15 21 15 31 0 11 4 19 8 19 9 0 42 69 42 87 0 6 7 16 15
23 8 7 15 27 15 45 0 18 7 38 15 45 8 7 15 20 15 30 0 10 7 23 15 30 8 7 15
21 15 31 0 10 5 21 10 24 6 3 10 18 10 33 0 15 7 36 15 46 8 11 15 32 15 47 0
14 7 32 15 39 8 7 15 27 15 45 0 18 7 38 15 45 9 7 13 21 9 35 -3 13 1 28 10
38 9 8 16 29 16 45 0 16 7 35 15 42 8 7 15 27 15 45 0 18 7 38 15 45 9 8 15
30 15 57 0 25 6 51 14 59 9 9 12 26 9 52 -4 27 -1 42 11 51 11 10 16 31 16 73
0 39 5 64 15 74 11 11 15 37 15 88 0 51 4 77 14 85 10 9 13 27 9 71 -4 45 -2
65 11 84 13 21 16 54 16 179 0 131 3 157 16 168 15 12 16 41 9 298 -5 220 -10
290 -21 305 -10 15 -14 56 -14 157 0 109 -3 139 -15 149 -11 9 -15 34 -15 100
0 67 -4 91 -15 100 -11 9 -15 29 -14 64 1 32 -5 64 -16 84 -11 22 -15 46 -12
67 3 21 0 40 -8 52 -8 10 -15 37 -15 59 0 24 -6 47 -15 54 -9 7 -15 29 -15 54
0 23 -7 51 -15 62 -8 10 -15 31 -15 45 0 15 -7 32 -15 39 -9 8 -15 29 -15 56
0 24 -6 49 -15 58 -8 8 -15 28 -15 44 0 16 -7 35 -15 42 -8 7 -15 27 -15 46 0
18 -4 35 -9 38 -13 9 -51 84 -51 103 0 22 -32 93 -42 93 -4 0 -8 15 -8 34 0
18 -7 39 -15 46 -8 7 -15 21 -15 31 0 10 -4 20 -9 24 -6 3 -21 29 -36 58 -14
28 -29 59 -34 67 -5 8 -24 48 -43 87 -18 40 -36 73 -40 73 -5 0 -8 8 -8 19 0
10 -7 24 -15 31 -8 7 -15 20 -15 30 0 10 -7 23 -15 30 -8 7 -15 20 -15 30 0
10 -6 23 -14 30 -8 6 -16 21 -18 33 -4 27 -30 33 -48 12z"/>
<path d="M7163 7407 c-128 -128 -237 -243 -242 -257 -10 -29 -587 -620 -605
-620 -7 0 -25 14 -41 30 -16 17 -35 30 -42 30 -7 0 -21 4 -31 9 -9 5 -24 12
-32 15 -8 4 -33 17 -55 31 -22 13 -49 24 -60 25 -12 0 -25 4 -31 10 -5 5 -25
12 -43 14 -18 2 -38 9 -44 15 -6 6 -28 11 -48 11 -20 0 -42 7 -49 15 -9 11
-36 15 -109 15 -68 1 -102 5 -115 15 -28 21 -179 21 -196 0 -9 -11 -34 -15
-100 -15 -66 0 -91 -4 -100 -15 -7 -9 -29 -15 -55 -15 -26 0 -48 -6 -55 -15
-7 -8 -27 -15 -45 -15 -18 0 -38 -7 -45 -15 -7 -8 -20 -15 -29 -15 -10 0 -26
-7 -37 -15 -10 -8 -29 -15 -40 -15 -12 0 -27 -7 -34 -15 -7 -8 -20 -15 -29
-15 -10 0 -28 -11 -41 -25 -13 -14 -30 -25 -38 -25 -7 0 -27 -13 -44 -30 -16
-16 -35 -30 -42 -30 -6 0 -36 -25 -66 -56 -30 -30 -71 -64 -91 -76 -20 -11
-46 -37 -57 -57 -12 -20 -46 -61 -76 -91 -31 -30 -56 -62 -56 -71 0 -9 -9 -24
-21 -35 -22 -19 -59 -89 -59 -110 0 -6 -7 -17 -15 -24 -8 -7 -15 -20 -15 -30
0 -10 -7 -23 -15 -30 -8 -7 -15 -20 -15 -30 0 -10 -7 -23 -15 -30 -9 -7 -13
-20 -10 -29 3 -10 -2 -26 -10 -37 -8 -10 -15 -33 -15 -50 0 -17 -7 -37 -15
-44 -9 -8 -15 -30 -15 -60 0 -30 -6 -52 -15 -60 -12 -10 -15 -36 -15 -116 0
-63 -4 -104 -10 -104 -16 0 -12 -142 5 -164 11 -15 15 -48 15 -124 0 -80 4
-107 15 -119 9 -9 15 -30 14 -52 -1 -20 5 -49 14 -65 8 -16 13 -34 11 -41 -3
-6 2 -18 11 -25 8 -7 15 -20 15 -30 0 -10 7 -23 15 -30 8 -7 15 -25 15 -41 0
-15 7 -34 15 -43 8 -8 15 -21 15 -28 0 -8 14 -27 30 -43 17 -16 30 -36 30 -46
0 -9 7 -22 15 -29 8 -7 12 -16 9 -21 -3 -5 15 -31 40 -57 26 -27 46 -54 46
-61 0 -17 222 -231 240 -231 9 0 34 -18 55 -40 21 -22 47 -40 56 -40 9 0 22
-7 29 -15 7 -8 20 -15 30 -15 10 0 23 -7 30 -15 7 -8 21 -15 31 -15 11 0 19
-4 19 -8 0 -9 69 -42 87 -42 6 0 16 -7 23 -15 7 -8 27 -15 45 -15 18 0 38 -7
45 -15 7 -8 27 -15 45 -15 18 0 38 -6 44 -13 7 -10 27 -12 64 -9 40 3 56 0 66
-12 19 -23 412 -24 431 -1 8 10 31 15 70 15 39 0 62 5 70 15 8 9 30 15 60 15
30 0 52 6 60 15 7 8 18 15 26 15 14 0 49 14 154 63 65 31 153 90 179 120 7 10
21 17 30 17 21 0 311 290 311 311 0 9 9 24 20 34 12 11 32 42 46 69 14 28 36
65 50 83 13 17 24 45 24 61 0 16 7 35 15 42 8 7 15 20 15 30 0 10 7 23 15 30
8 7 15 27 15 45 0 19 6 35 12 37 7 3 11 18 10 35 -1 17 4 36 13 43 11 9 15 33
15 84 1 46 6 78 15 90 22 29 22 408 0 426 -10 8 -15 31 -15 70 0 39 -5 62 -15
70 -9 8 -15 29 -15 56 0 24 -6 49 -15 58 -8 8 -15 28 -15 44 0 16 -7 35 -15
42 -8 7 -15 21 -15 31 0 10 -4 20 -10 24 -13 8 -102 193 -98 204 1 6 121 129
266 274 144 145 262 271 262 280 0 9 123 140 273 293 149 152 273 282 275 288
1 7 -83 95 -188 197 -106 101 -193 185 -195 187 -2 2 -16 5 -32 7 -25 3 -53
-22 -260 -228z"/>
<path d="M12791 7316 c-71 -72 -111 -119 -111 -132 0 -15 67 -86 209 -225 115
-111 212 -212 215 -224 3 -12 95 -108 203 -215 592 -577 765 -754 754 -770 -6
-8 -14 -22 -17 -30 -3 -8 -10 -22 -15 -30 -5 -8 -12 -22 -15 -30 -3 -8 -9 -22
-13 -30 -5 -9 -12 -30 -15 -48 -4 -17 -12 -34 -17 -37 -5 -4 -9 -21 -9 -39 0
-19 -7 -39 -15 -46 -12 -10 -15 -45 -15 -200 0 -155 3 -190 15 -200 9 -8 15
-29 15 -56 0 -24 6 -49 15 -58 8 -8 15 -21 15 -29 0 -8 7 -20 15 -27 8 -7 15
-20 15 -30 0 -10 7 -23 15 -30 8 -7 15 -20 15 -30 0 -10 7 -23 15 -30 8 -7 12
-17 9 -22 -8 -13 225 -238 246 -238 9 0 27 -11 40 -25 13 -14 31 -25 41 -25 9
0 22 -7 29 -15 7 -8 21 -15 30 -15 10 0 20 -5 22 -11 2 -6 19 -13 38 -15 19
-2 39 -9 44 -14 6 -6 26 -10 46 -10 19 -1 46 -7 60 -15 37 -21 362 -21 380 0
7 9 29 15 55 15 26 0 48 6 55 15 7 8 27 15 45 15 18 0 38 7 45 15 7 8 20 15
30 15 10 0 23 7 30 15 7 8 18 15 24 15 6 0 31 18 55 40 25 22 50 40 56 40 15
0 155 144 155 159 0 6 15 28 33 48 34 39 67 96 67 118 0 7 7 18 15 25 8 7 15
27 15 45 0 18 7 38 15 45 9 7 15 29 15 54 0 23 5 47 12 54 19 19 11 298 -9
329 -10 14 -13 34 -10 52 4 17 0 36 -8 49 -8 11 -16 28 -18 39 -5 28 -40 103
-49 103 -4 0 -8 8 -8 19 0 10 -7 24 -15 31 -8 7 -15 20 -15 30 0 10 -57 75
-127 144 -116 116 -136 132 -227 177 -55 27 -112 49 -127 49 -14 0 -32 7 -39
15 -8 10 -31 15 -70 15 -39 0 -62 5 -70 15 -10 13 -34 14 -133 11 -77 -3 -123
-9 -128 -17 -4 -7 -29 -11 -61 -10 -34 0 -62 -5 -74 -14 -10 -8 -31 -15 -45
-15 -15 0 -32 -7 -39 -15 -7 -8 -21 -15 -31 -15 -10 0 -20 -4 -23 -9 -3 -5
-25 -19 -47 -31 l-42 -21 -45 43 c-25 24 -189 185 -364 358 -176 173 -324 317
-329 318 -5 2 -9 12 -9 21 0 10 -141 158 -323 338 -285 282 -327 320 -355 320
-26 0 -48 -18 -141 -111z"/>
</g>
</svg>
